G04 ================== begin FILE IDENTIFICATION RECORD ==================*
G04 Layout Name:  D:/Microsatellite/SADA_controller_PCB/footprint/SADA_controller.brd*
G04 Film Name:    BOTTOM*
G04 File Format:  Gerber RS274X*
G04 File Origin:  Cadence Allegro 16.6-2015-S066*
G04 Origin Date:  Sat Apr 13 14:58:28 2019*
G04 *
G04 Layer:  ETCH/BOTTOM*
G04 Layer:  PIN/BOTTOM*
G04 Layer:  VIA CLASS/BOTTOM*
G04 *
G04 Offset:    (0.0000 0.0000)*
G04 Mirror:    No*
G04 Mode:      Positive*
G04 Rotation:  0*
G04 FullContactRelief:  No*
G04 UndefLineWidth:     0.1524*
G04 ================== end FILE IDENTIFICATION RECORD ====================*
%FSLAX25Y25*MOMM*%
%IR0*IPPOS*OFA0.00000B0.00000*MIA0B0*SFA1.00000B1.00000*%
%ADD25R,1.1X.6*%
%ADD22R,2.15X.45*%
%ADD11C,.6*%
%ADD23R,2.13X3.*%
%ADD17R,2.5X1.52*%
%ADD18R,1.52X2.5*%
%ADD16R,2.5X1.7*%
%ADD12C,2.*%
%ADD21R,3.2X4.7*%
%ADD10C,4.*%
%ADD13C,1.8*%
%ADD14R,1.8X1.8*%
%ADD24R,.8128X.762*%
%ADD15R,.762X.8128*%
%ADD19R,.8128X.889*%
%ADD20R,.889X.8128*%
%ADD26C,.2032*%
%ADD27C,.508*%
%ADD37R,2.4044X.7044*%
%ADD38R,1.71X1.21*%
%ADD28C,1.21*%
%ADD30C,2.0544*%
%ADD33C,2.2544*%
%ADD31C,2.2068*%
%ADD29C,2.4068*%
%ADD32R,2.2068X2.2068*%
%ADD36R,1.7744X2.7544*%
%ADD35R,2.7544X1.7744*%
%ADD34R,2.7544X1.9544*%
G75*
%LPD*%
G75*
G36*
G01X-2634600Y-2449990D02*
G02X-2638800Y-2430580I1J10160D01*
G03X-2930580Y-2138800I-91200J200580D01*
G02X-2949990Y-2134600I-9250J4201D01*
G01Y2134600D01*
G02X-2930580Y2138800I10160J-1D01*
G03X-2638800Y2430580I200580J91200D01*
G02X-2634600Y2449990I4201J9250D01*
G01X1430760D01*
G02X1437940Y2432650I-3J-10158D01*
G01X1399500Y2394210D01*
X1393240Y2396800D01*
Y2399960D01*
X1117240D01*
Y2293960D01*
X1332210D01*
G02X1339390Y2276620I-3J-10158D01*
G01X1335740Y2272960D01*
X1117240D01*
Y2166960D01*
X1393240D01*
Y2215460D01*
X1444190Y2266410D01*
G02X1452860Y2262810I3590J-3595D01*
G01Y2256770D01*
X1473180D01*
Y2236490D01*
X1470640D01*
Y2122150D01*
X1577360D01*
Y2236490D01*
X1574820D01*
Y2256770D01*
X1595140D01*
Y2291060D01*
X1661140D01*
Y2263120D01*
X1681460D01*
Y2247920D01*
X1661140D01*
Y2110720D01*
X1691620D01*
Y2069160D01*
X1668760Y2046300D01*
Y2037100D01*
X1634470D01*
Y2016780D01*
X1614190D01*
Y2019320D01*
X1499850D01*
Y1912600D01*
X1561330D01*
G02X1568510Y1895260I-3J-10158D01*
G01X1543820Y1870560D01*
Y1845980D01*
X1513960Y1816120D01*
X1470640D01*
Y1673840D01*
X1498580D01*
Y1600220D01*
X1470640D01*
Y1457940D01*
X1541010D01*
G02X1548190Y1440600I-3J-10158D01*
G01X1498580Y1390980D01*
Y1376700D01*
X1459240D01*
Y1653850D01*
X1363460Y1749640D01*
X1363480Y1751780D01*
G03X1303810Y1692110I-60490J820D01*
G01X1305950Y1692130D01*
X1325860Y1672220D01*
G02X1318680Y1654880I-7183J-7182D01*
G01X1268760D01*
Y1664080D01*
X1183210Y1749640D01*
X1183230Y1751780D01*
G03X1123560Y1692110I-60490J820D01*
G01X1125700Y1692130D01*
X1145610Y1672220D01*
G02X1138430Y1654880I-7183J-7182D01*
G01X1037600D01*
Y1181380D01*
X1020780Y1164560D01*
X943600D01*
Y1654880D01*
X562600D01*
Y1430040D01*
X507060D01*
X486740Y1450360D01*
X484900D01*
X460290Y1474980D01*
G02X467470Y1492320I7183J7182D01*
G01X533300D01*
Y1723320D01*
X459150D01*
G02X451970Y1740660I3J10158D01*
G01X504520Y1793220D01*
X834720D01*
X966800Y1925300D01*
X1117240D01*
Y1912960D01*
X1393240D01*
Y2018960D01*
X1117240D01*
Y2006620D01*
X1086960D01*
Y2319180D01*
X850520D01*
X818240Y2351460D01*
Y2399960D01*
X542240D01*
Y2293960D01*
X760740D01*
X764390Y2290300D01*
G02X757210Y2272960I-7183J-7182D01*
G01X542240D01*
Y2203470D01*
X523260D01*
Y2223750D01*
X525800D01*
Y2338090D01*
X419080D01*
Y2223750D01*
X421620D01*
Y2203470D01*
X401300D01*
Y2057420D01*
X375940D01*
Y2203470D01*
X355620D01*
Y2223750D01*
X358160D01*
Y2338090D01*
X251440D01*
Y2223750D01*
X253980D01*
Y2203470D01*
X233660D01*
Y2184420D01*
X41370D01*
X-60980Y2082070D01*
Y2051320D01*
X-160580D01*
Y2000720D01*
X-183510D01*
G02X-193140Y2014110I0J10158D01*
G03X-385830Y1976930I-106857J35888D01*
G02X-392490Y1960240I-7732J-6588D01*
G01X-478180Y1874540D01*
X-502940D01*
Y1859300D01*
X-1530250D01*
X-1685090Y2014140D01*
X-1684270Y2017010D01*
G03X-1767010Y1934270I-115730J32990D01*
G01X-1764140Y1935090D01*
X-1576550Y1747500D01*
X-1394750D01*
X-1376700Y1729450D01*
Y1620540D01*
X-1389400D01*
Y1478260D01*
X-1252200D01*
Y1498580D01*
X-1237000D01*
Y1478260D01*
X-1157300D01*
X-1111580Y1432540D01*
X-1086200D01*
G03X-996600I44800J40660D01*
G01X-756190D01*
X-710470Y1478260D01*
X-642600D01*
Y1620540D01*
X-779800D01*
Y1600220D01*
X-795000D01*
Y1620540D01*
X-807700D01*
Y1747500D01*
X-502940D01*
Y1732260D01*
X-490240D01*
Y1668800D01*
X-502940D01*
Y1526520D01*
X-365740D01*
Y1546840D01*
X-350540D01*
Y1526520D01*
X-213340D01*
Y1668800D01*
X-226040D01*
Y1732260D01*
X-213340D01*
Y1750040D01*
X175550D01*
X246800Y1821280D01*
G02X264140Y1814100I7182J-7185D01*
G01Y1771840D01*
X295310Y1740660D01*
G02X288130Y1723320I-7183J-7182D01*
G01X222300D01*
Y1492320D01*
X337140D01*
Y1483120D01*
X451220Y1369040D01*
X453060D01*
X457990Y1364100D01*
G02X450810Y1346760I-7183J-7182D01*
G01X265160D01*
Y1035760D01*
X478160D01*
Y1150600D01*
X496270D01*
X563630Y1083240D01*
X1054460D01*
X1095100Y1123880D01*
X1346650D01*
G02X1353830Y1106540I-3J-10158D01*
G01X1349160Y1101870D01*
X1347020Y1101890D01*
G03X1286430Y1050790I-824J-60494D01*
G01X1285760Y1046500D01*
X1119850D01*
X938250Y864900D01*
X654360D01*
X653460Y865260D01*
G03Y752740I-22260J-56260D01*
G01X654360Y753100D01*
X724270D01*
G02X733350Y738380I1J-10160D01*
G03X746740Y666400I54050J-27181D01*
G01Y559580D01*
X735820Y548660D01*
X567360D01*
X441940Y423240D01*
Y194640D01*
X389560Y142260D01*
X237160D01*
X178630Y83730D01*
G02X161400Y92450I-7185J7185D01*
G03X160430Y115720I-59801J9162D01*
G02X170310Y128250I9879J2371D01*
G01X172740D01*
Y278150D01*
X152420D01*
Y298430D01*
X154960D01*
Y412770D01*
X48240D01*
Y298430D01*
X50780D01*
Y278150D01*
X30460D01*
Y128250D01*
X32890D01*
G02X42770Y115720I1J-10159D01*
G03X110750Y41800I58829J-14117D01*
G02X119470Y24570I1535J-10045D01*
G01X104560Y9670D01*
X102420Y9690D01*
G03X162090Y-49980I-820J-60490D01*
G01X162070Y-47840D01*
X270840Y60940D01*
X423240D01*
X523260Y160960D01*
Y389560D01*
X601040Y467340D01*
X716740D01*
G02X726900Y457180I0J-10160D01*
G03X827110Y502840I60499J18D01*
G01X826980Y502960D01*
X823260Y506680D01*
X828060Y511480D01*
Y666400D01*
G03X834580Y673320I-40639J44821D01*
G02X852290Y669670I7920J-6361D01*
G03X869940Y641000I58310J16129D01*
G01Y-13040D01*
X904730Y-47840D01*
X904710Y-49980D01*
G03X964380Y9690I60490J-820D01*
G01X962240Y9670D01*
X951260Y20640D01*
Y641000D01*
G03X946190Y734720I-40661J44797D01*
G02X952170Y753100I5974J8219D01*
G01X984550D01*
X1166150Y934700D01*
X1266760D01*
X1272450Y929010D01*
X1267520Y924080D01*
X1265630Y923940D01*
G03X1210410Y874040I4371J-60340D01*
G02X1195800Y866740I-10007J1758D01*
G03X1127740Y768000I-27400J-53940D01*
G01Y523140D01*
G02X1113930Y513660I-10161J3D01*
G03Y400740I-21730J-56460D01*
G02X1127740Y391260I3649J-9483D01*
G01Y-16840D01*
X1209530Y-98640D01*
X1209510Y-100780D01*
G03Y-102420I60490J-820D01*
G01X1209530Y-104560D01*
X1167280Y-146820D01*
X476400D01*
G02X466330Y-135270I-5J10160D01*
G03X346470I-59930J8270D01*
G02X336400Y-146820I-10065J-1390D01*
G01X-252880D01*
X-389560Y-10140D01*
X-516560D01*
X-577280Y50580D01*
G02X-572120Y67720I7186J7183D01*
G03X-561940Y70740I-12051J59288D01*
G01X-561040Y71100D01*
X-53050D01*
X5100Y129250D01*
Y332440D01*
X5460Y333340D01*
G03X-107060I-56260J22260D01*
G01X-106700Y332440D01*
Y182900D01*
X-561050D01*
X-634050Y255900D01*
X-2453430D01*
G03Y144100I-106570J-55900D01*
G01X-1461930D01*
G02X-1454750Y126760I-3J-10158D01*
G01X-1488460Y93040D01*
Y-220040D01*
X-1457470Y-251040D01*
X-1457490Y-253180D01*
G03X-1397820Y-193510I60490J-820D01*
G01X-1399960Y-193530D01*
X-1407140Y-186360D01*
Y59360D01*
X-1391560Y74940D01*
X-1354200D01*
G03X-1250970Y131300I44802J40659D01*
G02X-1241160Y144100I9810J2641D01*
G01X-1197240D01*
G02X-1187430Y131300I0J-10159D01*
G03X-1189490Y114780I58433J-15675D01*
G01X-1189470Y112640D01*
X-1259860Y42240D01*
Y-313360D01*
X-1286840Y-340340D01*
X-1682400D01*
G03X-1755320Y-434570I-44799J-40662D01*
G02X-1752850Y-450750I-4716J-8998D01*
G01X-1767860Y-465760D01*
Y-793400D01*
G03X-1705470Y-894660I40661J-44798D01*
G02X-1691660Y-904140I3649J-9483D01*
G01Y-1032840D01*
X-1657700Y-1066800D01*
X-1749640Y-1158730D01*
X-1751780Y-1158710D01*
G03X-1692110Y-1218380I-820J-60490D01*
G01X-1692130Y-1216240D01*
X-1677230Y-1201330D01*
G02X-1660000Y-1210050I7185J-7185D01*
G03X-1539710Y-1218380I59800J-9150D01*
G01X-1539730Y-1216240D01*
X-1507160Y-1183660D01*
X-1386740D01*
G02X-1377260Y-1197470I-3J-10161D01*
G03X-1362850Y-1262700I56461J-21734D01*
G02Y-1277300I-7064J-7300D01*
G03X-1361460Y-1365600I42050J-43499D01*
G01Y-1566240D01*
X-1261440Y-1666260D01*
X-889020D01*
Y-1780560D01*
X-787380D01*
Y-1778020D01*
X-754400D01*
Y-1798340D01*
X-674700D01*
X-627730Y-1845320D01*
G02X-634920Y-1862660I-7183J-7182D01*
G03X-551790Y-2045470I-78J-110341D01*
G02X-536950Y-2044960I7658J-6671D01*
G01X-447550Y-2134350D01*
G02X-448100Y-2149230I-7186J-7185D01*
G03X-300170Y-2163610I67104J-77771D01*
G02X-292180Y-2147180I7993J6271D01*
G01X-215820D01*
G02X-207830Y-2163610I-3J-10159D01*
G03X-45000Y-2165140I80827J-63390D01*
G02X-36890Y-2148860I8112J6119D01*
G01X8640D01*
X83180Y-2074320D01*
X86290Y-2075550D01*
G03X24450Y-2013710I40710J102550D01*
G01X25680Y-2016820D01*
X-25040Y-2067540D01*
X-40980D01*
G02X-48230Y-2050270I5J10159D01*
G03X-207250Y-2048730I-78769J77269D01*
G02X-214640Y-2065860I-7391J-6971D01*
G01X-293360D01*
G02X-300750Y-2048730I1J10159D01*
G03X-404240Y-1865140I-80250J75726D01*
G02X-416540Y-1855200I-2139J9934D01*
G01Y-1798340D01*
X-388600D01*
Y-1778020D01*
X-373400D01*
Y-1798340D01*
X-236200D01*
Y-1767860D01*
X-222650D01*
X-221160Y-1769400D01*
G03X-134440I43360J42200D01*
G01X-132950Y-1767860D01*
X-119400D01*
Y-1798340D01*
X17800D01*
Y-1778020D01*
X33000D01*
Y-1798340D01*
X112700D01*
X139030Y-1824670D01*
X175170D01*
X279720Y-1929220D01*
G03X488100Y-1946450I101282J-43781D01*
G02X497960Y-1933850I9861J2441D01*
G01X518040D01*
G02X527900Y-1946450I-1J-10159D01*
G03X591220Y-1871720I107097J-26554D01*
G01X572030Y-1852530D01*
X498660D01*
X461820Y-1815680D01*
G02X469000Y-1798340I7183J7182D01*
G01X551200D01*
Y-1767860D01*
X564750D01*
X566240Y-1769400D01*
G03X652960I43360J42200D01*
G01X654450Y-1767860D01*
X668000D01*
Y-1798340D01*
X805200D01*
Y-1778020D01*
X820400D01*
Y-1798340D01*
X848340D01*
Y-1870420D01*
G03X929660I40660J-102580D01*
G01Y-1798340D01*
X957600D01*
Y-1666260D01*
X1227760D01*
X1260330Y-1698840D01*
X1260310Y-1700980D01*
G03X1319980Y-1641310I60490J-820D01*
G01X1317840Y-1641330D01*
X1261440Y-1584940D01*
X1207710D01*
G02X1204110Y-1576270I-5J5080D01*
G01X1209060Y-1571320D01*
Y-1429560D01*
X1216240Y-1422390D01*
X1218380Y-1422410D01*
G03X1278190Y-1348480I822J60493D01*
G02X1288090Y-1336060I9904J2261D01*
G01X1596720D01*
X1640860Y-1291920D01*
Y-794900D01*
X1646190Y-789570D01*
X1650190Y-793570D01*
X1650500Y-794070D01*
G03X1702620Y-822490I51297J32073D01*
G01X1704760Y-822470D01*
X1788140Y-905840D01*
Y-2345360D01*
X1752440Y-2381060D01*
X1084610D01*
G02X1074740Y-2368470I-4J10161D01*
G03X1076490Y-2353180I-58742J14468D01*
G01X1076470Y-2351040D01*
X1099180Y-2328320D01*
X1102290Y-2329550D01*
G03X1183660Y-2124420I40712J102554D01*
G01Y-2083340D01*
X1253340D01*
Y-1862660D01*
X1032660D01*
Y-2083340D01*
X1102340D01*
Y-2124420D01*
G03X1040450Y-2267710I40663J-102574D01*
G01X1041680Y-2270820D01*
X1018960Y-2293530D01*
X1016820Y-2293510D01*
G03X957260Y-2368470I-818J-60492D01*
G02X947390Y-2381060I-9866J-2429D01*
G01X-1460580D01*
G02X-1468570Y-2364630I3J10159D01*
G03X-1630230I-80830J63390D01*
G02X-1638220Y-2381060I-7993J-6271D01*
G01X-1676240D01*
X-1711940Y-2345360D01*
Y-1670400D01*
G03X-1793260I-40660J44800D01*
G01Y-2379040D01*
X-1739660Y-2432650D01*
G02X-1746840Y-2449990I-7183J-7182D01*
G01X-2634600D01*
G37*
G36*
G01X-973760Y-1305540D02*
X-975340Y-1303960D01*
Y-1126160D01*
X-1100760Y-1000740D01*
X-1103970D01*
Y-992260D01*
X-1100840Y-990970D01*
G03X-1041720Y-845220I-42161J101967D01*
G01X-1005680Y-809180D01*
X-987320D01*
G02X-979030Y-825210I-3J-10160D01*
G03X-929660Y-991580I90030J-63794D01*
G01Y-1032840D01*
X-829640Y-1132860D01*
X818800D01*
G03X876200Y-1033030I44801J40658D01*
G02X872270Y-1027120I1063J4968D01*
G03X768000Y-975340I-59470J11120D01*
G01X-541640D01*
G02X-549510Y-958760I4J10160D01*
G03X-718210Y-816530I-85491J69761D01*
G02X-733050Y-817040I-7658J6671D01*
G01X-822240Y-727860D01*
X-1039360D01*
X-1099220Y-787720D01*
G03X-1202350Y-982020I-43778J-101283D01*
G02X-1207820Y-1000740I-5471J-8561D01*
G01X-1294280D01*
Y-786280D01*
X-1499720D01*
Y-1000740D01*
X-1608760D01*
X-1610340Y-999160D01*
Y-756000D01*
G03X-1672730Y-654740I-40661J44798D01*
G02X-1686540Y-645260I-3649J9483D01*
G01Y-499440D01*
X-1659560Y-472460D01*
X-1202360D01*
X-1184700Y-454800D01*
X-1178260Y-461250D01*
X-1180390Y-464670D01*
G03X-1169660Y-541400I51389J-31929D01*
G01Y-589640D01*
X-1131470Y-627830D01*
X-976730D01*
X-924540Y-575640D01*
Y-423240D01*
X-873740Y-372440D01*
Y-243860D01*
X-851690D01*
G02X-844510Y-261200I-3J-10158D01*
G01X-849660Y-266360D01*
Y-434000D01*
G03X-768830Y-524040I40660J-44800D01*
G02X-754760Y-524580I6754J-7591D01*
G03X-666400Y-523260I43563J41981D01*
G01X-421540D01*
G02X-412060Y-537070I-3J-10161D01*
G03X-396260Y-603600I56461J-21732D01*
G01Y-702640D01*
X-321640Y-777260D01*
X-95600D01*
G03Y-695940I44800J40660D01*
G01X-287960D01*
X-314940Y-668960D01*
Y-603600D01*
G03X-299140Y-537070I-40661J44798D01*
G02X-289660Y-523260I9483J3649D01*
G01X93040D01*
X98640Y-517670D01*
X100780Y-517690D01*
G03X143670Y-413720I820J60493D01*
G02X150730Y-396260I7065J7301D01*
G01X618160D01*
X619740Y-397840D01*
Y-550240D01*
X795960Y-726460D01*
X895000D01*
G03X990410Y-718950I44800J40660D01*
G02X1006090Y-717330I8499J-5567D01*
G01X1015220Y-726460D01*
X1021950D01*
X1023440Y-728000D01*
G03X1123260Y-664070I43358J42196D01*
G02X1132740Y-650260I9483J3649D01*
G01X1428400D01*
G03X1461120Y-668880I44797J40662D01*
G02X1466280Y-686020I-2026J-9957D01*
G01X1419840Y-732460D01*
Y-1153140D01*
X1052700D01*
X900300Y-1305540D01*
X-973760D01*
G37*
G36*
G01X-906900Y35540D02*
X-677240D01*
X-563030Y-78680D01*
G02X-570210Y-96020I-7183J-7182D01*
G01X-684680D01*
X-766760Y-13940D01*
X-924200D01*
G03X-932470Y-6370I-44809J-40651D01*
G02X-933520Y8910I6131J8097D01*
G01X-906900Y35540D01*
G37*
G36*
G01X1036860Y-633100D02*
X920080Y-516310D01*
G02X921130Y-501030I7181J7183D01*
G03X866640Y-395030I-36529J48228D01*
G02X853460Y-385330I-3019J9702D01*
G01Y-375050D01*
X855000Y-373560D01*
G03X869260Y-308470I-42201J43353D01*
G02X878740Y-294660I9483J3649D01*
G01X1337640D01*
X1470240Y-162070D01*
X1472380Y-162090D01*
G03X1516680Y-143670I826J60493D01*
G02X1534140Y-150730I7301J-7065D01*
G01Y-194640D01*
X1584940Y-245440D01*
Y-391260D01*
G02X1571130Y-400740I-10161J3D01*
G03X1495830Y-429080I-21733J-56461D01*
G02X1479650Y-431550I-8998J4716D01*
G01X1439240Y-391140D01*
X1202360D01*
X1171360Y-422130D01*
X1169220Y-422110D01*
G03X1124900Y-440550I-827J-60493D01*
G02X1110300I-7300J7064D01*
G03X1026140Y-527400I-43493J-42056D01*
G01Y-575640D01*
X1059880Y-609380D01*
G02X1054720Y-626520I-7186J-7183D01*
G03X1040120Y-631500I12072J-59283D01*
G01X1036860Y-633100D01*
G37*
G36*
G01X1823040Y-2449990D02*
G02X1815860Y-2432650I3J10158D01*
G01X1869460Y-2379040D01*
Y-872160D01*
X1762270Y-764960D01*
X1762290Y-762820D01*
G03X1733870Y-710700I-60493J823D01*
G01X1733370Y-710390D01*
X1729370Y-706390D01*
X1733120Y-702640D01*
Y-391250D01*
X1707380Y-365510D01*
Y-349070D01*
X1733120Y-323330D01*
Y-186360D01*
X1729370Y-182610D01*
X1733370Y-178610D01*
X1733870Y-178300D01*
G03X1746600Y-167660I-32068J51302D01*
G01X1795450D01*
X1820850Y-193060D01*
X1830050D01*
Y-223540D01*
X1979950D01*
Y-203220D01*
X2000230D01*
Y-205760D01*
X2114570D01*
Y-99040D01*
X2000230D01*
Y-101580D01*
X1979950D01*
Y-81260D01*
X1830050D01*
Y-86340D01*
X1746600D01*
G03X1691290Y-67420I-44800J-40660D01*
G01X1688690Y-67880D01*
X1683220Y-62420D01*
X1691660Y-53980D01*
Y-29080D01*
G03X1645660Y75980I-40661J44797D01*
G02X1634700Y84680I-898J10122D01*
G03X1531320Y118270I-59902J-8480D01*
G02X1513860Y125330I-7301J7065D01*
G01Y524840D01*
X1482870Y555840D01*
X1482890Y557980D01*
G03X1368830Y586920I-60494J819D01*
G02X1352650Y584450I-8998J4716D01*
G01X1310660Y626440D01*
Y818800D01*
G03X1322050Y894440I-40660J44800D01*
G02X1330790Y909780I8739J5180D01*
G01X1400720D01*
X1425640Y934700D01*
X1746250D01*
X2445090Y235860D01*
X2444270Y232990D01*
G03X2527010Y315730I115730J-32990D01*
G01X2524140Y314910D01*
X1792550Y1046500D01*
X1748810D01*
Y1148100D01*
X1634470D01*
Y1145560D01*
X1614190D01*
Y1165880D01*
X1579900D01*
Y1234420D01*
X1614190D01*
Y1254740D01*
X1634470D01*
Y1252200D01*
X1748810D01*
Y1358920D01*
X1634470D01*
Y1356380D01*
X1614190D01*
Y1376700D01*
X1611570D01*
G02X1607970Y1385370I-5J5080D01*
G01X1614500Y1391900D01*
X1675460D01*
X1732300Y1448740D01*
Y1457940D01*
X1760240D01*
Y1600220D01*
X1732300D01*
Y1673840D01*
X1760240D01*
Y1704320D01*
X1801860D01*
X1838920Y1741380D01*
X1852060D01*
Y1672380D01*
X1834280D01*
Y1551380D01*
X2005280D01*
Y1606770D01*
X2045920Y1647410D01*
Y1766350D01*
X2005280Y1806990D01*
Y1838940D01*
X2046300D01*
X2092980Y1885620D01*
Y1894820D01*
X2120920D01*
Y1925300D01*
X2165000D01*
G03X2254770Y2006430I44800J40660D01*
G02Y2020030I7550J6800D01*
G03X2167860Y2016890I-44974J40469D01*
G02Y2009570I-3516J-3660D01*
G03X2165000Y2006620I41984J-43565D01*
G01X2120920D01*
Y2037100D01*
X1983720D01*
Y2016780D01*
X1968520D01*
Y2037100D01*
X1940580D01*
Y2120030D01*
X1938240Y2122370D01*
G02X1941840Y2131040I3595J3590D01*
G01X1996460D01*
Y2232680D01*
X1993920D01*
Y2265660D01*
X2014240D01*
Y2402860D01*
X1929460D01*
X1899680Y2432650D01*
G02X1906860Y2449990I7183J7182D01*
G01X2634600D01*
G02X2638800Y2430580I-1J-10160D01*
G03X2930580Y2138800I91200J-200580D01*
G02X2949990Y2134600I9250J-4201D01*
G01Y-2134600D01*
G02X2930580Y-2138800I-10160J1D01*
G03X2638800Y-2430580I-200580J-91200D01*
G02X2634600Y-2449990I-4201J-9250D01*
G01X1823040D01*
G37*
%LPC*%
G75*
G36*
G01X-759340Y2163260D02*
G02X-840660I-40660J-113260D01*
G01Y2203200D01*
G02X-759340I40660J44800D01*
G01Y2163260D01*
G37*
G36*
G01X-1397760Y1086260D02*
X-1434640Y1123130D01*
X-1436780Y1123110D01*
G02X-1377110Y1182780I-820J60490D01*
G01X-1377130Y1180640D01*
X-1364080Y1167580D01*
X-642520D01*
X-629470Y1180640D01*
X-629490Y1182780D01*
G02X-569820Y1123110I60490J820D01*
G01X-571960Y1123130D01*
X-608840Y1086260D01*
X-1397760D01*
G37*
G36*
G01X-121560Y839460D02*
X-53760Y771670D01*
X-51620Y771690D01*
G02X-111290Y712020I820J-60490D01*
G01X-111270Y714160D01*
X-155240Y758140D01*
X-604200D01*
G02Y839460I-44800J40660D01*
G01X-121560D01*
G37*
G36*
G01X-1724240Y593870D02*
X-1717060Y601040D01*
Y973760D01*
X-1724240Y980930D01*
X-1726380Y980910D01*
G02X-1666710Y1040580I-820J60490D01*
G01X-1666730Y1038440D01*
X-1635740Y1007440D01*
Y567360D01*
X-1666730Y536360D01*
X-1666710Y534220D01*
G02X-1674910Y502970I-60493J-828D01*
G03X-1666130Y487700I8781J-5110D01*
G01X-611850D01*
X-535650Y411500D01*
X-534760Y411120D01*
G02X-614690Y332430I-24042J-55519D01*
G01X-658150Y375900D01*
X-1801150D01*
X-2069350Y644100D01*
X-2453430D01*
G02Y755900I-106570J55900D01*
G01X-2023050D01*
X-1804210Y537060D01*
G03X-1786980Y542690I7188J7183D01*
G02X-1726380Y593890I59780J-9292D01*
G01X-1724240Y593870D01*
G37*
G36*
G01X2194580Y2232680D02*
Y2131040D01*
X2087860D01*
Y2232680D01*
X2090400D01*
Y2265660D01*
X2070080D01*
Y2402860D01*
X2212450D01*
G03X2223980Y2394130I10073J1325D01*
G02Y2274390I8680J-59870D01*
G03X2212450Y2265660I-1457J-10055D01*
G01X2192040D01*
Y2232680D01*
X2194580D01*
G37*
G36*
G01X1932960Y1352570D02*
Y1238230D01*
X1826240D01*
Y1352570D01*
X1828780D01*
Y1372850D01*
X1808460D01*
Y1522750D01*
X1950740D01*
Y1488460D01*
X2011660D01*
Y1522750D01*
X2096440D01*
X2107720Y1534040D01*
G03X2100540Y1551380I-7183J7182D01*
G01X2094280D01*
Y1672380D01*
X2265280D01*
Y1551380D01*
X2220440D01*
Y1531750D01*
X2194500Y1505800D01*
G03X2201680Y1488460I7183J-7182D01*
G01X2393600D01*
G02Y1407140I44800J-40660D01*
G01X2153940D01*
Y1372850D01*
X2133620D01*
Y1352570D01*
X2136160D01*
Y1238230D01*
X2029440D01*
Y1352570D01*
X2031980D01*
Y1372850D01*
X2011660D01*
Y1407140D01*
X1950740D01*
Y1372850D01*
X1930420D01*
Y1352570D01*
X1932960D01*
G37*
G36*
G01X1979950Y-25420D02*
Y-45740D01*
X1830050D01*
Y-15260D01*
X1811960D01*
X1780960Y15730D01*
X1778820Y15710D01*
G02X1834980Y96540I-819J60493D01*
G01X1979950D01*
Y76220D01*
X2000230D01*
Y78760D01*
X2114570D01*
Y-27960D01*
X2000230D01*
Y-25420D01*
X1979950D01*
G37*
G54D37*
X1255240Y2092960D03*
G54D38*
X2179780Y1801880D03*
G54D28*
X-2768600Y-101600D03*
X-1371600Y1320800D03*
X127000Y762000D03*
X1498600Y-2082800D03*
X1701800Y-1549400D03*
X-431800Y-889000D03*
X1422400Y762000D03*
X2095500Y-1638300D03*
X2057400Y-685800D03*
X2286000Y-2032000D03*
X2819400Y-1778000D03*
G54D30*
X-1549400Y-2047240D03*
X-1143000Y-2227000D03*
X-889000D03*
X-635000D03*
X127000D03*
X381000D03*
X635000D03*
X889000D03*
G54D33*
X-1300000Y2050000D03*
G54D31*
X-1549400Y-1793240D03*
X-1143000Y-1973000D03*
X-889000D03*
G54D29*
X-2560000Y1200000D03*
Y1700000D03*
X2560000Y700000D03*
Y1200000D03*
Y1700000D03*
G54D32*
X-1549400Y-1539240D03*
G54D36*
X29660Y1191260D03*
G54D35*
X-5080Y2286820D03*
G54D34*
X-22200Y1607820D03*
%LPD*%
G75*
G54D10*
X-2730000Y-2230000D03*
Y2230000D03*
X2730000Y-2230000D03*
Y2230000D03*
G54D20*
X304800Y1905000D03*
X457200D03*
X1539240Y1094740D03*
Y1305560D03*
X1557020Y1965960D03*
X1691640Y1094740D03*
Y1305560D03*
X1709420Y1965960D03*
X1905000Y-152400D03*
Y25400D03*
X2057400Y-152400D03*
Y25400D03*
G54D11*
X-2768600Y-101600D03*
X-2565400Y-2006600D03*
Y-1524000D03*
Y-1066800D03*
Y-584200D03*
X-1752600Y-1625600D03*
Y-1219200D03*
X-1727200Y-838200D03*
Y-381000D03*
X-1752600Y-50800D03*
X-1727200Y533400D03*
X-1778000Y609600D03*
X-1803400Y914400D03*
X-1727200Y1041400D03*
X-1600200Y-1219200D03*
X-1651000Y-711200D03*
X-1437600Y1183600D03*
X-1371600Y-2286000D03*
X-1320800Y-1320800D03*
Y-1219200D03*
X-1397000Y-254000D03*
X-1309400Y115600D03*
X-1371600Y1320800D03*
X-1289000Y1187400D03*
X-1041400Y-660400D03*
X-1049000Y-475000D03*
X-1129000Y-496600D03*
X-1049000Y58400D03*
X-1129000Y115600D03*
X-1041400Y1473200D03*
X-965200Y-1727200D03*
X-969000Y-54600D03*
X-809000Y-478800D03*
X-812800Y1320800D03*
X-800000Y2248000D03*
X-711200Y-482600D03*
X-649000Y798800D03*
X-609600Y-76200D03*
X-584200Y127000D03*
X-558800Y355600D03*
X-569000Y1183600D03*
X-508000Y1447800D03*
X-431800Y-889000D03*
X-355600Y-558800D03*
X-177800Y-1727200D03*
X-149860Y1191260D03*
X-50800Y-736600D03*
Y355600D03*
Y711200D03*
X101600Y-457200D03*
Y-50800D03*
Y101600D03*
Y482600D03*
X127000Y762000D03*
X406400Y-127000D03*
X533400Y-25400D03*
X433070Y2387600D03*
X609600Y-1727200D03*
Y-1422400D03*
X631200Y809000D03*
X670600Y1742400D03*
X784980Y-1216780D03*
X812800Y-1016000D03*
Y-330200D03*
X787400Y457200D03*
Y711200D03*
X863600Y-1092200D03*
X939800Y-685800D03*
X833120Y-609600D03*
X884600Y-452800D03*
X910600Y685800D03*
X1016000Y-2354000D03*
X977280Y-1371600D03*
X1066800Y-685800D03*
X965200Y-508000D03*
X1066800Y-482600D03*
X965200Y-50800D03*
X990600Y457200D03*
X1092200D03*
X990600Y1854200D03*
X1219200Y-1361920D03*
X1168400Y-482600D03*
Y812800D03*
X1122740Y1752600D03*
X1320800Y-1701800D03*
X1295400Y-508000D03*
X1270000Y-101600D03*
Y863600D03*
X1346200Y1041400D03*
X1302990Y1752600D03*
X1473200Y-609600D03*
Y-101600D03*
X1397000Y-50800D03*
X1422400Y558800D03*
Y762000D03*
X1498600Y-2082800D03*
X1549400Y-457200D03*
X1574800Y76200D03*
X1569800Y249000D03*
X1524000Y1854200D03*
X1752600Y-1752600D03*
X1701800Y-1549400D03*
Y-762000D03*
X1727200Y-357290D03*
X1701800Y-127000D03*
X1651000Y15720D03*
X1778000Y76200D03*
X1803400Y228600D03*
X1828800Y457200D03*
Y736600D03*
X1981200Y1193800D03*
X2095500Y-1638300D03*
X2032000Y-812800D03*
X2057400Y-685800D03*
X2082800Y-279400D03*
X2032000Y2082800D03*
X2286000Y-2032000D03*
X2209800Y1965960D03*
Y2060500D03*
X2232660Y2334260D03*
X2336800Y1295400D03*
X2387600Y1854200D03*
X2438400Y-2235200D03*
Y-838200D03*
Y-330200D03*
Y1447800D03*
X2819400Y-1778000D03*
G54D21*
X753100Y1389380D03*
X1228100D03*
G54D12*
X-2560000Y200000D03*
Y700000D03*
Y1200000D03*
Y1700000D03*
X-1800000Y2050000D03*
X-1300000D03*
X-800000D03*
X-300000D03*
X2560000Y200000D03*
Y700000D03*
Y1200000D03*
Y1700000D03*
G54D13*
X-1549400Y-2301240D03*
Y-2047240D03*
Y-1793240D03*
X-1143000Y-2227000D03*
Y-1973000D03*
Y-889000D03*
X-889000Y-2227000D03*
Y-1973000D03*
Y-889000D03*
X-635000Y-2227000D03*
Y-1973000D03*
Y-889000D03*
X-381000Y-2227000D03*
Y-1973000D03*
X-127000Y-2227000D03*
Y-1973000D03*
X127000Y-2227000D03*
Y-1973000D03*
X381000Y-2227000D03*
Y-1973000D03*
X635000Y-2227000D03*
Y-1973000D03*
X889000Y-2227000D03*
Y-1973000D03*
X1143000Y-2227000D03*
G54D22*
X680240Y1965960D03*
Y2092960D03*
Y2219960D03*
Y2346960D03*
X1255240Y1965960D03*
Y2092960D03*
Y2219960D03*
Y2346960D03*
G54D14*
X-1549400Y-1539240D03*
X-1397000Y-889000D03*
X1143000Y-1973000D03*
G54D23*
X967740Y2156460D03*
G54D15*
X-1320800Y1549400D03*
X-1168400D03*
X-838200Y-1727200D03*
X-863600Y1549400D03*
X-685800Y-1727200D03*
X-711200Y1549400D03*
X-457200Y-1727200D03*
X-434340Y1597660D03*
Y1803400D03*
X-304800Y-1727200D03*
X-281940Y1597660D03*
Y1803400D03*
X-50800Y-1727200D03*
X101600D03*
X330200D03*
X482600D03*
X736600D03*
X889000D03*
X1539240Y1529080D03*
Y1744980D03*
X1691640Y1529080D03*
Y1744980D03*
X1899920Y1965960D03*
X2052320D03*
G54D24*
X1732280Y2179320D03*
Y2331720D03*
X1943100Y2181860D03*
Y2334260D03*
X2141220Y2181860D03*
Y2334260D03*
G54D16*
X-22200Y1607820D03*
X377800D03*
G54D25*
X1919780Y1611880D03*
Y1706880D03*
Y1801880D03*
X2179780Y1611880D03*
Y1801880D03*
G54D26*
G01X1701800Y-762000D02*
X1828800Y-889000D01*
Y-2362200D01*
X1769280Y-2421720D01*
X-1693080D01*
X-1752600Y-2362200D01*
Y-1625600D01*
G01Y-1219200D02*
X-1625600Y-1092200D01*
X-1168400D01*
X-1092200Y-1168400D01*
Y-1447800D01*
X-1057120Y-1482880D01*
X1031720D01*
X1066800Y-1447800D01*
Y-1346200D01*
X1168400Y-1244600D01*
X1503680D01*
X1524000Y-1224280D01*
Y-762000D01*
X1625600Y-660400D01*
Y-228600D01*
X1574800Y-177800D01*
Y76200D01*
G01X-1049000Y58400D02*
X-1143000Y-35600D01*
Y-355600D01*
X-1219200Y-431800D01*
X-1676400D01*
X-1727200Y-482600D01*
Y-838200D01*
G01X-1129000Y115600D02*
X-1219200Y25400D01*
Y-330200D01*
X-1270000Y-381000D01*
X-1727200D01*
G01Y1041400D02*
X-1676400Y990600D01*
Y584200D01*
X-1727200Y533400D01*
G01X-1657200Y-2047240D02*
X-1549400D01*
G01X1651000Y15720D02*
Y-37140D01*
X1641320Y-46820D01*
Y-152060D01*
X1692460Y-203200D01*
Y-306490D01*
X1666720Y-332230D01*
Y-382350D01*
X1692460Y-408090D01*
Y-685800D01*
X1600200Y-778060D01*
Y-1275080D01*
X1579880Y-1295400D01*
X1193800D01*
X1117600Y-1371600D01*
Y-1498600D01*
X1092200Y-1524000D01*
X-1143000D01*
X-1168400Y-1498600D01*
Y-1193800D01*
X-1219200Y-1143000D01*
X-1524000D01*
X-1600200Y-1219200D01*
G01X-1651000Y-711200D02*
Y-1016000D01*
X-1625600Y-1041400D01*
X-1117600D01*
X-1016000Y-1143000D01*
Y-1320800D01*
X-990600Y-1346200D01*
X917140D01*
X1069540Y-1193800D01*
X1440180D01*
X1460500Y-1173480D01*
Y-749300D01*
X1574800Y-635000D01*
Y-584200D01*
X1422400Y-431800D01*
X1219200D01*
X1168400Y-482600D01*
G01X-1549400Y-2047240D02*
Y-2301240D01*
G01X-1386840D02*
X-1549400D01*
G01Y-2047240D02*
Y-1939440D01*
G01Y-2047240D02*
X-1441600D01*
G01X-1504800Y-889000D02*
X-1397000D01*
G01X-1371600Y-2286000D02*
X-1386840Y-2301240D01*
G01X-1312600Y-2227000D02*
X-1371600Y-2286000D01*
G01X1320800Y-1701800D02*
X1244600Y-1625600D01*
X-1244600D01*
X-1320800Y-1549400D01*
Y-1320800D01*
G01X-1397000Y-889000D02*
Y-781200D01*
G01Y-889000D02*
X-1289200D01*
G01X-1397000Y-254000D02*
X-1447800Y-203200D01*
Y76200D01*
X-1408400Y115600D01*
X-1309400D01*
G01X-569000Y1183600D02*
X-625680Y1126920D01*
X-1380920D01*
X-1437600Y1183600D01*
G01X-1417800Y2050000D02*
X-1300000D01*
G01X-1143000Y-2227000D02*
X-1312600D01*
G01X1219200Y-1361920D02*
X1168400Y-1412720D01*
Y-1554480D01*
X1148080Y-1574800D01*
X-1193800D01*
X-1244600Y-1524000D01*
Y-1239520D01*
X-1264920Y-1219200D01*
X-1320800D01*
G01X-1153900Y1903900D02*
X-1300000Y2050000D01*
G01Y1932200D02*
Y2050000D01*
G01D02*
Y2167800D01*
G01Y2050000D02*
X-1182200D01*
G01X-1143000Y-2334800D02*
Y-2227000D01*
G01D02*
X-889000D01*
G01X-1143000D02*
Y-2119200D01*
G01X812800Y-1016000D02*
X-711200D01*
X-768520Y-958680D01*
Y-839080D01*
X-839080Y-768520D01*
X-1022520D01*
X-1143000Y-889000D01*
G01X833120Y-609600D02*
X711200Y-487680D01*
Y-355600D01*
X660400Y-304800D01*
X-330200D01*
X-431800Y-203200D01*
X-894080D01*
X-914400Y-223520D01*
Y-355600D01*
X-965200Y-406400D01*
Y-558800D01*
X-993570Y-587170D01*
X-1114630D01*
X-1129000Y-572800D01*
Y-496600D01*
G01X-1168400Y1549400D02*
Y1546860D01*
X-1094740Y1473200D01*
X-1041400D01*
G01X-422860Y2050000D02*
X-568960Y1903900D01*
X-1153900D01*
G01X-838200Y-1727200D02*
X-965200D01*
G01X1270000Y-101600D02*
X1184120Y-187480D01*
X-269720D01*
X-406400Y-50800D01*
X-533400D01*
X-660400Y76200D01*
X-923740D01*
X-1049000Y-49060D01*
Y-475000D01*
G01X1473200Y-101600D02*
X1320800Y-254000D01*
X-304800D01*
X-422120Y-136680D01*
X-701520D01*
X-783600Y-54600D01*
X-969000D01*
G01X-1041400Y1473200D02*
X-773030D01*
X-711200Y1535030D01*
Y1549400D01*
G01X-889000Y-2334800D02*
Y-2227000D01*
G01D02*
X-635000D01*
G01X-889000D02*
Y-2119200D01*
G01Y-889000D02*
Y-1016000D01*
X-812800Y-1092200D01*
X863600D01*
G01X939800Y-685800D02*
X812800D01*
X660400Y-533400D01*
Y-381000D01*
X635000Y-355600D01*
X-355600D01*
X-457200Y-254000D01*
X-779800D01*
X-809000Y-283200D01*
Y-478800D01*
G01X-800000Y2050000D02*
Y2248000D01*
G01X127000Y-1973000D02*
X-8200Y-2108200D01*
X-75400D01*
X-77080Y-2106520D01*
X-417880D01*
X-501480Y-2022920D01*
Y-1914060D01*
X-685800Y-1729740D01*
Y-1727200D01*
G01X-711200Y-482600D02*
X76200D01*
X101600Y-457200D01*
G01X-635000Y-2334800D02*
Y-2227000D01*
G01D02*
X-381000D01*
G01X-635000D02*
Y-2119200D01*
G01X-649000Y798800D02*
X-138400D01*
X-50800Y711200D01*
G01X-457200Y-1727200D02*
Y-1896800D01*
X-381000Y-1973000D01*
G01X-300000Y2050000D02*
X-422860D01*
G01X-381000Y-2227000D02*
X-127000D01*
G01X-304800Y-1727200D02*
X-177800D01*
G01X-50800Y-736600D02*
X-304800D01*
X-355600Y-685800D01*
Y-558800D01*
G01X-300000Y2224760D02*
Y2050000D01*
G01X-237940Y2286820D02*
X-300000Y2224760D01*
G01X-127000Y-2227000D02*
X127000D01*
G01X-50800Y-1727200D02*
X-177800D01*
G01X29660Y1191260D02*
X-149860D01*
G01X-165000Y1607820D02*
X-22200D01*
G01X-5080Y2286820D02*
X-237940D01*
G01X-22200Y1607820D02*
Y1390980D01*
G01D02*
X29660Y1339120D01*
G01X-22200Y1607820D02*
Y1710620D01*
G01Y1607820D02*
X120600D01*
G01X-5080Y2193020D02*
Y2286820D01*
G01X142780D02*
X-5080D01*
G01D02*
Y2380620D01*
G01X127000Y-2334800D02*
Y-2227000D01*
G01D02*
X381000D01*
G01X127000D02*
Y-2119200D01*
G01X101600Y-1727200D02*
Y-1729740D01*
X155870Y-1784010D01*
X192010D01*
X381000Y-1973000D01*
G01X787400Y711200D02*
Y528320D01*
X776760Y517680D01*
X762340D01*
X752660Y508000D01*
X584200D01*
X482600Y406400D01*
Y177800D01*
X406400Y101600D01*
X254000D01*
X101600Y-50800D01*
G01Y203200D02*
Y101600D01*
G01Y355600D02*
Y482600D01*
G01X43160Y355600D02*
X101600D01*
G01D02*
X160040D01*
G01X29660Y1048460D02*
Y1191260D01*
G01Y1339120D02*
Y1191260D01*
G01D02*
X123460D01*
G01X148680Y2280920D02*
X142780Y2286820D01*
G01X304800Y2280920D02*
X148680D01*
G01X381000Y-2334800D02*
Y-2227000D01*
G01D02*
X635000D01*
G01X381000D02*
Y-2119200D01*
G01X330200Y-1727200D02*
Y-1741570D01*
X481820Y-1893190D01*
X555190D01*
X635000Y-1973000D01*
G01X371660Y1191260D02*
X513110D01*
X580470Y1123900D01*
X1037620D01*
X1228100Y1314380D01*
Y1389380D01*
G01X753100D02*
X490220D01*
X469900Y1409700D01*
X468060D01*
X377800Y1499960D01*
Y1607820D01*
G01X373640Y1719840D02*
X377800Y1715680D01*
Y1607820D01*
G01X304800Y1905000D02*
Y1788680D01*
X373640Y1719840D01*
G01D02*
X487680Y1833880D01*
X817880D01*
X949960Y1965960D01*
X1255240D01*
G01X304800Y2280920D02*
X472440D01*
G01X482600Y-1727200D02*
X609600D01*
G01X457200Y1905000D02*
X664640D01*
X680240Y1920600D01*
Y1965960D01*
G01X472440Y2128520D02*
X535940D01*
X574400Y2166980D01*
X800370D01*
X818220Y2184830D01*
Y2293980D01*
X765240Y2346960D01*
X680240D01*
G01X433070Y2387600D02*
X472440Y2348230D01*
G01D02*
Y2280920D01*
G01X635000Y-2334800D02*
Y-2227000D01*
G01D02*
X889000D01*
G01X635000D02*
Y-2119200D01*
G01X736600Y-1727200D02*
X609600D01*
G01X1066800Y-685800D02*
X1032060D01*
X812800Y-466540D01*
Y-330200D01*
G01X889000Y-2334800D02*
Y-2227000D01*
G01D02*
Y-2119200D01*
G01Y-2227000D02*
X996800D01*
G01X889000Y-1727200D02*
Y-1973000D01*
G01X939800Y-685800D02*
Y-680720D01*
G01X910600Y685800D02*
Y3800D01*
X965200Y-50800D01*
G01X1143000Y-2227000D02*
X1016000Y-2354000D01*
G01X1473200Y-609600D02*
X1117600D01*
X1066800Y-558800D01*
Y-482600D01*
G01X1237100Y2156460D02*
X967740D01*
G01X1143000Y-2227000D02*
Y-1973000D01*
G01X1168400Y812800D02*
Y0D01*
X1270000Y-101600D01*
G01X1228100Y1389380D02*
Y1647240D01*
X1122740Y1752600D01*
G01X1129940Y2092960D02*
X1255240D01*
G01X1397000Y-50800D02*
X1422400Y-25400D01*
Y457200D01*
X1270000Y609600D01*
Y863600D01*
G01X1346200Y1041400D02*
X1418580Y1113780D01*
Y1637010D01*
X1302990Y1752600D01*
G01X1255240Y2092960D02*
X1426210D01*
G01X1255240D02*
Y2138320D01*
G01D02*
X1237100Y2156460D01*
G01X1255240Y2052660D02*
Y2092960D01*
G01X1524000Y2331720D02*
X1452000D01*
X1340240Y2219960D01*
X1255240D01*
G01Y2346960D02*
X1409760D01*
X1469450Y2406650D01*
X1868170D01*
X1940560Y2334260D01*
G01X1473200Y-101600D02*
Y508000D01*
X1422400Y558800D01*
G01X1426210Y2092960D02*
X1553210Y1965960D01*
X1557020D01*
G01X1465560Y2179320D02*
X1524000D01*
G01X1539240Y1094740D02*
Y1305560D01*
G01D02*
Y1374140D01*
X1597660Y1432560D01*
X1658620D01*
X1691640Y1465580D01*
Y1529080D01*
G01X1539240D02*
Y1744980D01*
G01X1557020Y1887220D02*
X1524000Y1854200D01*
G01X1539240Y1744980D02*
Y1783900D01*
X1584480Y1829140D01*
Y1853720D01*
X1610360Y1879600D01*
X2029460D01*
X2052320Y1902460D01*
Y1965960D01*
G01X1557020D02*
Y1887220D01*
G01Y1965960D02*
Y2029460D01*
G01D02*
X1524000Y2062480D01*
G01D02*
Y2179320D01*
G01D02*
X1582440D01*
G01X1524000Y2331720D02*
X1732280D01*
G01X1701800Y-127000D02*
X1812290D01*
X1837690Y-152400D01*
X1905000D01*
G01X1691640Y1094740D02*
Y1305560D01*
G01D02*
X1758950D01*
G01X1691640Y1388040D02*
Y1305560D01*
G01X1834300Y1530700D02*
X1691640Y1388040D01*
G01Y1529080D02*
Y1744980D01*
G01D02*
X1785020D01*
X1841920Y1801880D01*
X1919780D01*
G01X1732280Y2179320D02*
Y2052320D01*
X1709420Y2029460D01*
Y1965960D01*
G01X1905000Y25400D02*
X1828800D01*
X1778000Y76200D01*
G01X1758950Y1305560D02*
X1769110Y1295400D01*
G01D02*
X1879600D01*
G01X1919780Y1706880D02*
X1886670D01*
X1834300Y1654510D01*
Y1530700D01*
G01X1940560Y2334260D02*
X1871980D01*
X1828800Y2291080D01*
Y2174310D01*
X1899920Y2103190D01*
Y1965960D01*
G01X1879600Y1295400D02*
X2082800D01*
G01X1879600Y1447800D02*
X2082800D01*
G01X1919780Y1611880D02*
X1952890D01*
X2005260Y1664250D01*
Y1749510D01*
X1952890Y1801880D01*
X1919780D01*
G01X2032000Y2095500D02*
X1945640Y2181860D01*
G01X1943100D02*
X1945640D01*
G01X2141220D02*
X1945640D01*
G01X1940560Y2334260D02*
X1943100D01*
G01X2057400Y-254000D02*
X2082800Y-279400D01*
G01X2057400Y25400D02*
Y-152400D01*
G01D02*
Y-254000D01*
G01Y25400D02*
Y83840D01*
G01Y25400D02*
X2119650D01*
G01X2082800Y1295400D02*
X2336800D01*
G01X2082800Y1447800D02*
X2438400D01*
G01X2179780Y1611880D02*
Y1548590D01*
X2082800Y1451610D01*
Y1447800D01*
G01X2052320Y1965960D02*
X2209800D01*
G01X2032000Y2082800D02*
Y2095500D01*
G01X2141220Y2125960D02*
Y2181860D01*
G01D02*
X2199660D01*
G01X2141220Y2334260D02*
X2232660D01*
G54D17*
X-5080Y1944820D03*
Y2286820D03*
G54D27*
G01X-2560000Y200000D02*
X-657200D01*
X-584200Y127000D01*
G01X-558800Y355600D02*
X-635000Y431800D01*
X-1778000D01*
X-2046200Y700000D01*
X-2560000D01*
G01X-1371600Y1803400D02*
X-1553400D01*
X-1800000Y2050000D01*
G01X-1320800Y1549400D02*
Y1752600D01*
X-1371600Y1803400D01*
G01X-914400D02*
X-1371600D01*
G01X-434340D02*
X-914400D01*
G01X-863600Y1549400D02*
Y1752600D01*
X-914400Y1803400D01*
G01X-50800Y355600D02*
Y152400D01*
X-76200Y127000D01*
X-584200D01*
G01X-434340Y1597660D02*
Y1803400D01*
G01X-5080Y1944820D02*
X-199090D01*
X-239630Y1904280D01*
X-369390D01*
X-434340Y1839330D01*
Y1803400D01*
G01X-281940Y1597660D02*
Y1803400D01*
G01D02*
X-279400Y1805940D01*
X152400D01*
X203200Y1856740D01*
Y1968390D01*
X236330Y2001520D01*
X503800D01*
X595240Y2092960D01*
X680240D01*
G01X304800Y2128520D02*
X64520D01*
X-5080Y2058920D01*
Y1944820D01*
G01X631200Y809000D02*
X961400D01*
X1143000Y990600D01*
X1289910D01*
X1314830Y965680D01*
X1377570D01*
X1402490Y990600D01*
X1769400D01*
X2560000Y200000D01*
G54D18*
X29660Y1191260D03*
X371660D03*
G54D19*
X101600Y203200D03*
Y355600D03*
X304800Y2128520D03*
Y2280920D03*
X472440Y2128520D03*
Y2280920D03*
X1524000Y2179320D03*
Y2331720D03*
X1879600Y1295400D03*
Y1447800D03*
X2082800Y1295400D03*
Y1447800D03*
M02*
