G04 ================== begin FILE IDENTIFICATION RECORD ==================*
G04 Layout Name:  D:/Microsatellite/SADA_controller_PCB/footprint/SADA_controller.brd*
G04 Film Name:    GND*
G04 File Format:  Gerber RS274X*
G04 File Origin:  Cadence Allegro 16.6-2015-S066*
G04 Origin Date:  Sat Apr 13 14:46:29 2019*
G04 *
G04 Layer:  ETCH/GND*
G04 Layer:  PIN/GND*
G04 Layer:  VIA CLASS/GND*
G04 *
G04 Offset:    (0.0000 0.0000)*
G04 Mirror:    No*
G04 Mode:      Positive*
G04 Rotation:  0*
G04 FullContactRelief:  No*
G04 UndefLineWidth:     0.1524*
G04 ================== end FILE IDENTIFICATION RECORD ====================*
%FSLAX25Y25*MOMM*%
%IR0*IPPOS*OFA0.00000B0.00000*MIA0B0*SFA1.00000B1.00000*%
%ADD11C,.6*%
%ADD12C,2.*%
%ADD10C,4.*%
%ADD13C,1.8*%
%ADD14C,.2032*%
%ADD15C,.508*%
%ADD16C,1.21*%
%ADD18C,2.0544*%
%ADD20C,2.2544*%
%ADD19C,2.2068*%
%ADD17C,2.4068*%
G75*
%LPD*%
G75*
G36*
G01X-2949990Y-2449990D02*
Y-2325400D01*
G02X-2930580Y-2321200I10160J-1D01*
G03X-2821200Y-2430580I200580J91200D01*
G02X-2825400Y-2449990I-4201J-9250D01*
G01X-2949990D01*
G37*
G36*
G01X-2634600D02*
G02X-2638800Y-2430580I1J10160D01*
G03X-2930580Y-2138800I-91200J200580D01*
G02X-2949990Y-2134600I-9250J4201D01*
G01Y2134600D01*
G02X-2930580Y2138800I10160J-1D01*
G03X-2638800Y2430580I200580J91200D01*
G02X-2634600Y2449990I4201J9250D01*
G01X2634600D01*
G02X2638800Y2430580I-1J-10160D01*
G03X2930580Y2138800I91200J-200580D01*
G02X2949990Y2134600I9250J-4201D01*
G01Y-2134600D01*
G02X2930580Y-2138800I-10160J1D01*
G03X2638800Y-2430580I-200580J-91200D01*
G02X2634600Y-2449990I-4201J-9250D01*
G01X-2634600D01*
G37*
G36*
G01X-2949990Y2325400D02*
Y2449990D01*
X-2825400D01*
G02X-2821200Y2430580I-1J-10160D01*
G03X-2930580Y2321200I91200J-200580D01*
G02X-2949990Y2325400I-9250J4201D01*
G37*
G36*
G01X2821200Y-2430580D02*
G03X2930580Y-2321200I-91200J200580D01*
G02X2949990Y-2325400I9250J-4201D01*
G01Y-2449990D01*
X2825400D01*
G02X2821200Y-2430580I1J10160D01*
G37*
G36*
G01X2930580Y2321200D02*
G03X2821200Y2430580I-200580J-91200D01*
G02X2825400Y2449990I4201J9250D01*
G01X2949990D01*
Y2325400D01*
G02X2930580Y2321200I-10160J1D01*
G37*
%LPC*%
G75*
G36*
G01X2254770Y2020030D02*
G03Y2006430I7550J-6800D01*
G02X2164830I-44970J-40470D01*
G03Y2020030I-7550J6800D01*
G02X2254770I44970J40470D01*
G37*
G36*
G01X1242600Y809660D02*
G03X1227990Y802360I-4603J-9058D01*
G02X1195800Y866740I-59591J10442D01*
G03X1210410Y874040I4603J9058D01*
G02X1242600Y809660I59591J-10442D01*
G37*
G36*
G01X-1069480Y126450D02*
G03X-1057980Y118230I9994J1827D01*
G02X-1108520Y47550I8980J-59830D01*
G03X-1120020Y55770I-9994J-1827D01*
G02X-1069480Y126450I-8980J59830D01*
G37*
G36*
G01X1634700Y84680D02*
G03X1645660Y75980I10062J1422D01*
G02X1591100Y7240I5341J-60262D01*
G03X1580140Y15940I-10062J-1422D01*
G02X1634700Y84680I-5341J60262D01*
G37*
G36*
G01X1456170Y-38200D02*
G03X1462080Y-42130I4968J1063D01*
G02X1414030Y-114200I11122J-59468D01*
G03X1408120Y-110270I-4968J-1063D01*
G02X1456170Y-38200I-11122J59468D01*
G37*
G36*
G01X-765440Y-436820D02*
G03X-751370Y-437360I7316J7051D01*
G02X-754760Y-524580I40171J-45237D01*
G03X-768830Y-524040I-7316J-7051D01*
G02X-765440Y-436820I-40171J45237D01*
G37*
G36*
G01X-1100490Y-443240D02*
G02X-1077510Y-528360I51491J-31761D01*
G02X-1100490Y-443240I-51491J31761D01*
G37*
G36*
G01X872270Y-1027120D02*
G03X876200Y-1033030I4993J-942D01*
G02X804130Y-1081080I-12602J-59172D01*
G03X800200Y-1075170I-4993J942D01*
G02X872270Y-1027120I12602J59172D01*
G37*
G36*
G01X-1278750Y-1262700D02*
G03Y-1277300I7064J-7300D01*
G02X-1362850I-42050J-43500D01*
G03Y-1262700I-7064J7300D01*
G02X-1278750I42050J43500D01*
G37*
G36*
G01X863420Y723680D02*
G02X852290Y669670I47180J-37874D01*
G03X834580Y673320I-9790J-2711D01*
G02X845710Y727330I-47180J37874D01*
G03X863420Y723680I9790J2711D01*
G37*
G36*
G01X1245780Y-473390D02*
G02X1236280Y-520860I49619J-34616D01*
G03X1218020Y-517210I-9927J-2162D01*
G02X1124900Y-524650I-49622J34610D01*
G03X1110300I-7300J-7064D01*
G02Y-440550I-43500J42050D01*
G03X1124900I7300J7064D01*
G02X1227520Y-469740I43501J-42049D01*
G03X1245780Y-473390I9927J2162D01*
G37*
G36*
G01X994170Y-712340D02*
G02X881000Y-671560I-54370J26537D01*
G03X865660Y-660600I-9875J2394D01*
G02X891920Y-623840I-32538J51004D01*
G03X907260Y-634800I9875J-2394D01*
G02X994170Y-659260I32543J-51001D01*
G03X1012430I9130J4453D01*
G02Y-712340I54370J-26540D01*
G03X994170I-9130J-4453D01*
G37*
G36*
G01X1073350Y-2334720D02*
G02X1035280Y-2296650I-57350J-19280D01*
G03X1047320Y-2281960I3232J9630D01*
G02X1088040Y-2322680I95680J54960D01*
G03X1073350Y-2334720I-5060J-8808D01*
G37*
G54D16*
X-2768600Y-101600D03*
X-1752600Y-1625600D03*
Y-1219200D03*
X-1727200Y-838200D03*
Y-381000D03*
Y533400D03*
Y1041400D03*
X-1600200Y-1219200D03*
X-1651000Y-711200D03*
X-1437600Y1183600D03*
X-1397000Y-254000D03*
X-1309400Y115600D03*
X-1371600Y1320800D03*
X-1041400Y1473200D03*
X-969000Y-54600D03*
X-800000Y2248000D03*
X-649000Y798800D03*
X-584200Y127000D03*
X-558800Y355600D03*
X-569000Y1183600D03*
X-431800Y-889000D03*
X-355600Y-558800D03*
X-177800Y-1727200D03*
X-50800Y-736600D03*
Y355600D03*
Y711200D03*
X101600Y-457200D03*
Y-50800D03*
Y101600D03*
X127000Y762000D03*
X406400Y-127000D03*
X609600Y-1727200D03*
Y-1422400D03*
X631200Y809000D03*
X812800Y-330200D03*
X787400Y457200D03*
X884600Y-452800D03*
X977280Y-1371600D03*
X965200Y-50800D03*
X1092200Y457200D03*
X1219200Y-1361920D03*
X1122740Y1752600D03*
X1320800Y-1701800D03*
X1270000Y-101600D03*
X1346200Y1041400D03*
X1302990Y1752600D03*
X1473200Y-609600D03*
X1422400Y558800D03*
Y762000D03*
X1498600Y-2082800D03*
X1549400Y-457200D03*
X1701800Y-1549400D03*
Y-762000D03*
Y-127000D03*
X1778000Y76200D03*
X2095500Y-1638300D03*
X2057400Y-685800D03*
X2286000Y-2032000D03*
X2232660Y2334260D03*
X2438400Y1447800D03*
X2819400Y-1778000D03*
G54D18*
X-1549400Y-2301240D03*
Y-2047240D03*
X-1397000Y-889000D03*
X-1143000Y-2227000D03*
X-889000D03*
X-635000D03*
X-381000D03*
X-127000D03*
X127000D03*
X381000D03*
X635000D03*
X889000D03*
G54D20*
X-1300000Y2050000D03*
X-300000D03*
G54D19*
X-1549400Y-1793240D03*
Y-1539240D03*
X-1143000Y-1973000D03*
Y-889000D03*
X-889000Y-1973000D03*
Y-889000D03*
X-635000Y-1973000D03*
Y-889000D03*
X-381000Y-1973000D03*
X-127000D03*
X127000D03*
X381000D03*
X635000D03*
X889000D03*
X1143000D03*
G54D17*
X-2560000Y200000D03*
Y700000D03*
Y1200000D03*
Y1700000D03*
X-1800000Y2050000D03*
X-800000D03*
X2560000Y200000D03*
Y700000D03*
Y1200000D03*
Y1700000D03*
%LPD*%
G75*
G54D10*
X-2730000Y-2230000D03*
Y2230000D03*
X2730000Y-2230000D03*
Y2230000D03*
G54D11*
X-2768600Y-101600D03*
X-2565400Y-2006600D03*
Y-1524000D03*
Y-1066800D03*
Y-584200D03*
X-1752600Y-1625600D03*
Y-1219200D03*
X-1727200Y-838200D03*
Y-381000D03*
X-1752600Y-50800D03*
X-1727200Y533400D03*
X-1778000Y609600D03*
X-1803400Y914400D03*
X-1727200Y1041400D03*
X-1600200Y-1219200D03*
X-1651000Y-711200D03*
X-1437600Y1183600D03*
X-1371600Y-2286000D03*
X-1320800Y-1320800D03*
Y-1219200D03*
X-1397000Y-254000D03*
X-1309400Y115600D03*
X-1371600Y1320800D03*
X-1289000Y1187400D03*
X-1041400Y-660400D03*
X-1049000Y-475000D03*
X-1129000Y-496600D03*
X-1049000Y58400D03*
X-1129000Y115600D03*
X-1041400Y1473200D03*
X-965200Y-1727200D03*
X-969000Y-54600D03*
X-809000Y-478800D03*
X-812800Y1320800D03*
X-800000Y2248000D03*
X-711200Y-482600D03*
X-649000Y798800D03*
X-609600Y-76200D03*
X-584200Y127000D03*
X-558800Y355600D03*
X-569000Y1183600D03*
X-508000Y1447800D03*
X-431800Y-889000D03*
X-355600Y-558800D03*
X-177800Y-1727200D03*
X-149860Y1191260D03*
X-50800Y-736600D03*
Y355600D03*
Y711200D03*
X101600Y-457200D03*
Y-50800D03*
Y101600D03*
Y482600D03*
X127000Y762000D03*
X406400Y-127000D03*
X533400Y-25400D03*
X433070Y2387600D03*
X609600Y-1727200D03*
Y-1422400D03*
X631200Y809000D03*
X670600Y1742400D03*
X784980Y-1216780D03*
X812800Y-1016000D03*
Y-330200D03*
X787400Y457200D03*
Y711200D03*
X863600Y-1092200D03*
X939800Y-685800D03*
X833120Y-609600D03*
X884600Y-452800D03*
X910600Y685800D03*
X1016000Y-2354000D03*
X977280Y-1371600D03*
X1066800Y-685800D03*
X965200Y-508000D03*
X1066800Y-482600D03*
X965200Y-50800D03*
X990600Y457200D03*
X1092200D03*
X990600Y1854200D03*
X1219200Y-1361920D03*
X1168400Y-482600D03*
Y812800D03*
X1122740Y1752600D03*
X1320800Y-1701800D03*
X1295400Y-508000D03*
X1270000Y-101600D03*
Y863600D03*
X1346200Y1041400D03*
X1302990Y1752600D03*
X1473200Y-609600D03*
Y-101600D03*
X1397000Y-50800D03*
X1422400Y558800D03*
Y762000D03*
X1498600Y-2082800D03*
X1549400Y-457200D03*
X1574800Y76200D03*
X1569800Y249000D03*
X1524000Y1854200D03*
X1752600Y-1752600D03*
X1701800Y-1549400D03*
Y-762000D03*
X1727200Y-357290D03*
X1701800Y-127000D03*
X1651000Y15720D03*
X1778000Y76200D03*
X1803400Y228600D03*
X1828800Y457200D03*
Y736600D03*
X1981200Y1193800D03*
X2095500Y-1638300D03*
X2032000Y-812800D03*
X2057400Y-685800D03*
X2082800Y-279400D03*
X2032000Y2082800D03*
X2286000Y-2032000D03*
X2209800Y1965960D03*
Y2060500D03*
X2232660Y2334260D03*
X2336800Y1295400D03*
X2387600Y1854200D03*
X2438400Y-2235200D03*
Y-838200D03*
Y-330200D03*
Y1447800D03*
X2819400Y-1778000D03*
G54D12*
X-2560000Y200000D03*
Y700000D03*
Y1200000D03*
Y1700000D03*
X-1800000Y2050000D03*
X-1300000D03*
X-800000D03*
X-300000D03*
X2560000Y200000D03*
Y700000D03*
Y1200000D03*
Y1700000D03*
G54D13*
X-1549400Y-2301240D03*
Y-2047240D03*
Y-1793240D03*
Y-1539240D03*
X-1397000Y-889000D03*
X-1143000Y-2227000D03*
Y-1973000D03*
Y-889000D03*
X-889000Y-2227000D03*
Y-1973000D03*
Y-889000D03*
X-635000Y-2227000D03*
Y-1973000D03*
Y-889000D03*
X-381000Y-2227000D03*
Y-1973000D03*
X-127000Y-2227000D03*
Y-1973000D03*
X127000Y-2227000D03*
Y-1973000D03*
X381000Y-2227000D03*
Y-1973000D03*
X635000Y-2227000D03*
Y-1973000D03*
X889000Y-2227000D03*
Y-1973000D03*
X1143000Y-2227000D03*
Y-1973000D03*
G54D14*
G01X-1657200Y-2301240D02*
X-1549400D01*
G01X-1657200Y-2047240D02*
X-1549400D01*
G01Y-2409040D02*
Y-2301240D01*
G01D02*
Y-2193440D01*
G01Y-2301240D02*
X-1441600D01*
G01X-1549400Y-2155040D02*
Y-2047240D01*
G01D02*
Y-1939440D01*
G01Y-2047240D02*
X-1441600D01*
G01X-1504800Y-889000D02*
X-1397000D01*
G01Y-996800D02*
Y-889000D01*
G01D02*
Y-781200D01*
G01Y-889000D02*
X-1289200D01*
G01X-1417800Y2050000D02*
X-1300000D01*
G01X-1250800Y-2227000D02*
X-1143000D01*
G01X-1300000Y1932200D02*
Y2050000D01*
G01D02*
Y2167800D01*
G01Y2050000D02*
X-1182200D01*
G01X-1143000Y-2334800D02*
Y-2227000D01*
G01D02*
Y-2119200D01*
G01Y-2227000D02*
X-1035200D01*
G01X-996800D02*
X-889000D01*
G01Y-2334800D02*
Y-2227000D01*
G01D02*
Y-2119200D01*
G01Y-2227000D02*
X-781200D01*
G01X-742800D02*
X-635000D01*
G01Y-2334800D02*
Y-2227000D01*
G01D02*
Y-2119200D01*
G01Y-2227000D02*
X-527200D01*
G01X-488800D02*
X-381000D01*
G01X-417800Y2050000D02*
X-300000D01*
G01X-381000Y-2334800D02*
Y-2227000D01*
G01D02*
Y-2119200D01*
G01Y-2227000D02*
X-273200D01*
G01X-300000Y1932200D02*
Y2050000D01*
G01D02*
Y2167800D01*
G01Y2050000D02*
X-182200D01*
G01X-127000Y-2334800D02*
Y-2227000D01*
G01D02*
Y-2119200D01*
G01X-234800Y-2227000D02*
X-127000D01*
G01D02*
X-19200D01*
G01X127000Y-2334800D02*
Y-2227000D01*
G01D02*
Y-2119200D01*
G01X19200Y-2227000D02*
X127000D01*
G01D02*
X234800D01*
G01X273200D02*
X381000D01*
G01Y-2334800D02*
Y-2227000D01*
G01D02*
Y-2119200D01*
G01Y-2227000D02*
X488800D01*
G01X527200D02*
X635000D01*
G01Y-2334800D02*
Y-2227000D01*
G01D02*
Y-2119200D01*
G01Y-2227000D02*
X742800D01*
G01X781200D02*
X889000D01*
G01Y-2334800D02*
Y-2227000D01*
G01D02*
Y-2119200D01*
G01Y-2227000D02*
X996800D01*
G54D15*
G01X-708660Y1597660D02*
X-683260D01*
X-659920Y1574320D01*
Y1549400D01*
M02*
