G04 ================== begin FILE IDENTIFICATION RECORD ==================*
G04 Layout Name:  D:/Microsatellite/SADA_controller_PCB/footprint/SADA_controller.brd*
G04 Film Name:    SILKSCREEN_BOTTOM*
G04 File Format:  Gerber RS274X*
G04 File Origin:  Cadence Allegro 16.6-2015-S066*
G04 Origin Date:  Sat Apr 13 14:46:29 2019*
G04 *
G04 Layer:  PACKAGE GEOMETRY/SILKSCREEN_BOTTOM*
G04 Layer:  MANUFACTURING/AUTOSILK_BOTTOM*
G04 Layer:  BOARD GEOMETRY/OUTLINE*
G04 Layer:  BOARD GEOMETRY/SILKSCREEN_BOTTOM*
G04 *
G04 Offset:    (0.0000 0.0000)*
G04 Mirror:    No*
G04 Mode:      Positive*
G04 Rotation:  0*
G04 FullContactRelief:  No*
G04 UndefLineWidth:     0.1524*
G04 ================== end FILE IDENTIFICATION RECORD ====================*
%FSLAX25Y25*MOMM*%
%IR0*IPPOS*OFA0.00000B0.00000*MIA0B0*SFA1.00000B1.00000*%
%ADD10C,.2*%
%ADD11C,.3*%
%ADD12C,.15*%
%ADD13C,.45*%
%ADD14C,.127*%
%ADD15C,.1524*%
G75*
%LPD*%
G75*
G54D10*
G01X154920Y2025820D02*
Y1843820D01*
X-165080D01*
Y2025820D01*
G01X154920D02*
Y1843820D01*
X-165080D01*
Y2025820D01*
G01X154920Y2205820D02*
Y2387820D01*
X-165080D01*
Y2205820D01*
G01X154920D02*
Y2387820D01*
X-165080D01*
Y2205820D01*
G01X110660Y1351260D02*
X-71340D01*
Y1031260D01*
X110660D01*
G01Y1351260D02*
X-71340D01*
Y1031260D01*
X110660D01*
G01X74920Y2135820D02*
X-85080D01*
G01X74920Y2095820D02*
X-85080D01*
G01X74920D02*
X-85080D01*
G01X74920Y2135820D02*
X-85080D01*
G01X180660Y1271260D02*
Y1111260D01*
G01X220660Y1271260D02*
Y1111260D01*
G01Y1271260D02*
Y1111260D01*
G01X180660Y1271260D02*
Y1111260D01*
G01X157800Y1607820D02*
X197800D01*
G01Y1587820D02*
Y1627820D01*
G01X157800Y1587820D02*
X197800Y1607820D01*
X157800Y1627820D01*
Y1587820D01*
G01D02*
X197800Y1607820D01*
X157800Y1627820D01*
Y1587820D01*
G01X197800D02*
Y1627820D01*
G01X157800Y1607820D02*
X197800D01*
G01X290660Y1351260D02*
X472660D01*
Y1031260D01*
X290660D01*
G01Y1351260D02*
X472660D01*
Y1031260D01*
X290660D01*
G01X556260Y1965960D02*
X533400Y1988820D01*
X530860D01*
Y1940560D01*
X556260Y1965960D01*
X530860D01*
G01X556260D02*
X533400Y1988820D01*
X530860D01*
Y1940560D01*
X556260Y1965960D01*
X530860D01*
G01X570600Y969380D02*
X1410600D01*
Y1809380D01*
X570600D01*
Y969380D01*
G01D02*
X1410600D01*
Y1809380D01*
X570600D01*
Y969380D01*
G01X868680Y1912620D02*
X810260Y1971040D01*
G01X1125740Y1910460D02*
Y2402460D01*
X809740D01*
Y1910460D01*
X1125740D01*
G01D02*
Y2402460D01*
X809740D01*
Y1910460D01*
X1125740D01*
G01X868680Y1912620D02*
X810260Y1971040D01*
G54D11*
G01X1439140Y-1143000D02*
Y-943000D01*
X1382800Y-1109670D01*
X1326460Y-943000D01*
Y-1143000D01*
G01X1202800Y-1009670D02*
Y-1143000D01*
G01Y-956340D02*
X1207130Y-953000D01*
Y-946330D01*
X1202800Y-943000D01*
X1198470Y-946330D01*
Y-953000D01*
X1202800Y-956340D01*
G01X988130Y-1026330D02*
X1003300Y-1013000D01*
X1016300Y-1009670D01*
X1033630Y-1016340D01*
X1046630Y-1029670D01*
X1055300Y-1053000D01*
X1057470Y-1076340D01*
X1055300Y-1099670D01*
X1046630Y-1119670D01*
X1033630Y-1136330D01*
X1016300Y-1143000D01*
X1001130Y-1136330D01*
X988130Y-1123000D01*
G01X873130Y-1143000D02*
Y-1009670D01*
G01Y-1036330D02*
X862300Y-1023000D01*
X851470Y-1013000D01*
X836300Y-1009670D01*
X825470Y-1013000D01*
X812470Y-1023000D01*
G01X662800Y-1143000D02*
X675800Y-1139670D01*
X688800Y-1126340D01*
X697470Y-1103000D01*
X701800Y-1076340D01*
X697470Y-1049670D01*
X688800Y-1026330D01*
X675800Y-1013000D01*
X662800Y-1009670D01*
X649800Y-1013000D01*
X636800Y-1026330D01*
X628130Y-1049670D01*
X625960Y-1076340D01*
X628130Y-1103000D01*
X636800Y-1126340D01*
X649800Y-1139670D01*
X662800Y-1143000D01*
G01X515300Y-1119670D02*
X504470Y-1133000D01*
X489300Y-1143000D01*
X476300D01*
X463300Y-1136330D01*
X454630Y-1126340D01*
X450300Y-1113010D01*
X452470Y-1093000D01*
X461130Y-1083000D01*
X500140Y-1063000D01*
X508800Y-1039660D01*
X504470Y-1023000D01*
X495800Y-1013000D01*
X482800Y-1009670D01*
X469800Y-1013000D01*
X456800Y-1023000D01*
G01X263800Y-1143000D02*
Y-1009670D01*
G01Y-1033000D02*
X272470Y-1019670D01*
X285470Y-1013000D01*
X300630Y-1009670D01*
X315800Y-1016340D01*
X328800Y-1029670D01*
X337470Y-1049670D01*
X341800Y-1076340D01*
X337470Y-1103000D01*
X328800Y-1123000D01*
X315800Y-1136330D01*
X300630Y-1143000D01*
X285470Y-1139670D01*
X272470Y-1129670D01*
X263800Y-1116340D01*
G01X122800Y-943000D02*
Y-1143000D01*
G01X153130Y-1009670D02*
X92470D01*
G01X-24700Y-1053000D02*
X-94040D01*
X-87530Y-1029670D01*
X-76700Y-1016340D01*
X-61530Y-1009670D01*
X-46370Y-1013000D01*
X-33370Y-1023000D01*
X-24700Y-1046340D01*
X-20360Y-1066340D01*
Y-1086330D01*
X-24700Y-1106340D01*
X-35530Y-1126340D01*
X-48530Y-1139670D01*
X-63700Y-1143000D01*
X-78870Y-1136330D01*
X-94040Y-1116340D01*
G01X-237200Y-1143000D02*
Y-943000D01*
G01X-417200Y-1143000D02*
Y-943000D01*
G01X-597200Y-1009670D02*
Y-1143000D01*
G01Y-956340D02*
X-592870Y-953000D01*
Y-946330D01*
X-597200Y-943000D01*
X-601530Y-946330D01*
Y-953000D01*
X-597200Y-956340D01*
G01X-777200Y-943000D02*
Y-1143000D01*
G01X-746870Y-1009670D02*
X-807530D01*
G01X-924700Y-1053000D02*
X-994040D01*
X-987530Y-1029670D01*
X-976700Y-1016340D01*
X-961530Y-1009670D01*
X-946370Y-1013000D01*
X-933370Y-1023000D01*
X-924700Y-1046340D01*
X-920360Y-1066340D01*
Y-1086330D01*
X-924700Y-1106340D01*
X-935530Y-1126340D01*
X-948530Y-1139670D01*
X-963700Y-1143000D01*
X-978870Y-1136330D01*
X-994040Y-1116340D01*
G54D12*
G01X-1559330Y2215330D02*
X-1554330Y2208830D01*
X-1551000Y2201250D01*
Y2192580D01*
X-1556000Y2182830D01*
X-1564330Y2175250D01*
X-1574330Y2169830D01*
X-1591000Y2165500D01*
X-1606000Y2164420D01*
X-1621000Y2166580D01*
X-1631000Y2169830D01*
X-1641000Y2176330D01*
X-1647670Y2183920D01*
X-1651000Y2191500D01*
Y2199080D01*
X-1647670Y2206670D01*
X-1642670Y2213170D01*
X-1636000Y2218580D01*
G01X-1651000Y2281500D02*
X-1551000D01*
X-1571000Y2268500D01*
G01X-1651000D02*
Y2294500D01*
G01X-1631000Y2347670D02*
X-1642670Y2354170D01*
X-1649330Y2362830D01*
X-1651000Y2372580D01*
X-1649330Y2381250D01*
X-1641000Y2389920D01*
X-1631000Y2395330D01*
X-1621000Y2396420D01*
X-1609340Y2394250D01*
X-1601000Y2386670D01*
X-1597670Y2379080D01*
Y2369330D01*
G01Y2379080D02*
X-1592670Y2385580D01*
X-1584340Y2391000D01*
X-1574330Y2393170D01*
X-1564330Y2391000D01*
X-1556000Y2385580D01*
X-1551000Y2375830D01*
X-1552670Y2366080D01*
X-1559330Y2356330D01*
G01X-1432330Y2215330D02*
X-1427330Y2208830D01*
X-1424000Y2201250D01*
Y2192580D01*
X-1429000Y2182830D01*
X-1437330Y2175250D01*
X-1447330Y2169830D01*
X-1464000Y2165500D01*
X-1479000Y2164420D01*
X-1494000Y2166580D01*
X-1504000Y2169830D01*
X-1514000Y2176330D01*
X-1520670Y2183920D01*
X-1524000Y2191500D01*
Y2199080D01*
X-1520670Y2206670D01*
X-1515670Y2213170D01*
X-1509000Y2218580D01*
G01X-1524000Y2281500D02*
X-1424000D01*
X-1444000Y2268500D01*
G01X-1524000D02*
Y2294500D01*
G01Y2384500D02*
X-1424000D01*
X-1495670Y2344420D01*
Y2398580D01*
G01X-1128430Y1625600D02*
Y1725600D01*
X-1155520D01*
X-1164180Y1720600D01*
X-1169600Y1713930D01*
X-1171770Y1700600D01*
X-1169600Y1687270D01*
X-1163100Y1678930D01*
X-1155520Y1673930D01*
X-1128430D01*
G01X-1155520D02*
X-1171770Y1625600D01*
G01X-1216270Y1645600D02*
X-1222770Y1633930D01*
X-1231430Y1627270D01*
X-1241180Y1625600D01*
X-1249850Y1627270D01*
X-1258520Y1635600D01*
X-1263930Y1645600D01*
X-1265020Y1655600D01*
X-1262850Y1667260D01*
X-1255270Y1675600D01*
X-1247680Y1678930D01*
X-1237930D01*
G01X-1247680D02*
X-1254180Y1683930D01*
X-1259600Y1692260D01*
X-1261770Y1702270D01*
X-1259600Y1712270D01*
X-1254180Y1720600D01*
X-1244430Y1725600D01*
X-1234680Y1723930D01*
X-1224930Y1717270D01*
G01X-1343100Y1625600D02*
Y1725600D01*
X-1303020Y1653930D01*
X-1357180D01*
G01X-1279930Y2215330D02*
X-1274930Y2208830D01*
X-1271600Y2201250D01*
Y2192580D01*
X-1276600Y2182830D01*
X-1284930Y2175250D01*
X-1294930Y2169830D01*
X-1311600Y2165500D01*
X-1326600Y2164420D01*
X-1341600Y2166580D01*
X-1351600Y2169830D01*
X-1361600Y2176330D01*
X-1368270Y2183920D01*
X-1371600Y2191500D01*
Y2199080D01*
X-1368270Y2206670D01*
X-1363270Y2213170D01*
X-1356600Y2218580D01*
G01X-1371600Y2281500D02*
X-1271600D01*
X-1291600Y2268500D01*
G01X-1371600D02*
Y2294500D01*
G01X-1356600Y2347670D02*
X-1364930Y2354170D01*
X-1369930Y2361750D01*
X-1371600Y2371500D01*
X-1368270Y2381250D01*
X-1361600Y2388830D01*
X-1349930Y2394250D01*
X-1336600Y2395330D01*
X-1323270Y2393170D01*
X-1314930Y2387750D01*
X-1308270Y2380170D01*
X-1306600Y2372580D01*
X-1308270Y2365000D01*
X-1314930Y2355250D01*
X-1271600Y2358500D01*
Y2387750D01*
G01X-898930Y2215330D02*
X-893930Y2208830D01*
X-890600Y2201250D01*
Y2192580D01*
X-895600Y2182830D01*
X-903930Y2175250D01*
X-913930Y2169830D01*
X-930600Y2165500D01*
X-945600Y2164420D01*
X-960600Y2166580D01*
X-970600Y2169830D01*
X-980600Y2176330D01*
X-987270Y2183920D01*
X-990600Y2191500D01*
Y2199080D01*
X-987270Y2206670D01*
X-982270Y2213170D01*
X-975600Y2218580D01*
G01X-990600Y2281500D02*
X-890600D01*
X-910600Y2268500D01*
G01X-990600D02*
Y2294500D01*
G01X-948940Y2350920D02*
X-937270Y2358500D01*
X-930600Y2365000D01*
X-927270Y2373670D01*
X-930600Y2381250D01*
X-937270Y2386670D01*
X-947270Y2391000D01*
X-958930Y2392080D01*
X-968930Y2391000D01*
X-978940Y2386670D01*
X-987270Y2380170D01*
X-990600Y2372580D01*
X-987270Y2363920D01*
X-977270Y2356330D01*
X-962270Y2352000D01*
X-945600Y2350920D01*
X-923940Y2353080D01*
X-912270Y2356330D01*
X-900600Y2361750D01*
X-892270Y2369330D01*
X-890600Y2376920D01*
X-893930Y2384500D01*
X-902270Y2389920D01*
G01X-696630Y-1625600D02*
Y-1525600D01*
X-723720D01*
X-732380Y-1530600D01*
X-737800Y-1537270D01*
X-739970Y-1550600D01*
X-737800Y-1563930D01*
X-731300Y-1572270D01*
X-723720Y-1577270D01*
X-696630D01*
G01X-723720D02*
X-739970Y-1625600D01*
G01X-787720Y-1583940D02*
X-795300Y-1572270D01*
X-801800Y-1565600D01*
X-810470Y-1562270D01*
X-818050Y-1565600D01*
X-823470Y-1572270D01*
X-827800Y-1582270D01*
X-828880Y-1593930D01*
X-827800Y-1603930D01*
X-823470Y-1613940D01*
X-816970Y-1622270D01*
X-809380Y-1625600D01*
X-800720Y-1622270D01*
X-793130Y-1612270D01*
X-788800Y-1597270D01*
X-787720Y-1580600D01*
X-789880Y-1558940D01*
X-793130Y-1547270D01*
X-798550Y-1535600D01*
X-806130Y-1527270D01*
X-813720Y-1525600D01*
X-821300Y-1528930D01*
X-826720Y-1537270D01*
G01X-671230Y1625600D02*
Y1725600D01*
X-698320D01*
X-706980Y1720600D01*
X-712400Y1713930D01*
X-714570Y1700600D01*
X-712400Y1687270D01*
X-705900Y1678930D01*
X-698320Y1673930D01*
X-671230D01*
G01X-698320D02*
X-714570Y1625600D01*
G01X-759070Y1645600D02*
X-765570Y1633930D01*
X-774230Y1627270D01*
X-783980Y1625600D01*
X-792650Y1627270D01*
X-801320Y1635600D01*
X-806730Y1645600D01*
X-807820Y1655600D01*
X-805650Y1667260D01*
X-798070Y1675600D01*
X-790480Y1678930D01*
X-780730D01*
G01X-790480D02*
X-796980Y1683930D01*
X-802400Y1692260D01*
X-804570Y1702270D01*
X-802400Y1712270D01*
X-796980Y1720600D01*
X-787230Y1725600D01*
X-777480Y1723930D01*
X-767730Y1717270D01*
G01X-849070Y1640600D02*
X-855570Y1632270D01*
X-863150Y1627270D01*
X-872900Y1625600D01*
X-882650Y1628930D01*
X-890230Y1635600D01*
X-895650Y1647270D01*
X-896730Y1660600D01*
X-894570Y1673930D01*
X-889150Y1682270D01*
X-881570Y1688930D01*
X-873980Y1690600D01*
X-866400Y1688930D01*
X-856650Y1682270D01*
X-859900Y1725600D01*
X-889150D01*
G01X-838200Y2169830D02*
X-738200D01*
Y2196920D01*
X-743200Y2205580D01*
X-749870Y2211000D01*
X-763200Y2213170D01*
X-776530Y2211000D01*
X-784870Y2204500D01*
X-789870Y2196920D01*
Y2169830D01*
G01Y2196920D02*
X-838200Y2213170D01*
G01X-754870Y2260920D02*
X-744870Y2267420D01*
X-739870Y2275000D01*
X-738200Y2283670D01*
X-741530Y2294500D01*
X-749870Y2302080D01*
X-759870Y2304250D01*
X-769870Y2303170D01*
X-778200Y2298830D01*
X-794870Y2277170D01*
X-806530Y2267420D01*
X-823200Y2260920D01*
X-838200Y2258750D01*
Y2304250D01*
G01X-823200Y2347670D02*
X-831530Y2354170D01*
X-836530Y2361750D01*
X-838200Y2371500D01*
X-834870Y2381250D01*
X-828200Y2388830D01*
X-816530Y2394250D01*
X-803200Y2395330D01*
X-789870Y2393170D01*
X-781530Y2387750D01*
X-774870Y2380170D01*
X-773200Y2372580D01*
X-774870Y2365000D01*
X-781530Y2355250D01*
X-738200Y2358500D01*
Y2387750D01*
G01X-685800Y2169830D02*
X-585800D01*
Y2196920D01*
X-590800Y2205580D01*
X-597470Y2211000D01*
X-610800Y2213170D01*
X-624130Y2211000D01*
X-632470Y2204500D01*
X-637470Y2196920D01*
Y2169830D01*
G01Y2196920D02*
X-685800Y2213170D01*
G01X-602470Y2260920D02*
X-592470Y2267420D01*
X-587470Y2275000D01*
X-585800Y2283670D01*
X-589130Y2294500D01*
X-597470Y2302080D01*
X-607470Y2304250D01*
X-617470Y2303170D01*
X-625800Y2298830D01*
X-642470Y2277170D01*
X-654130Y2267420D01*
X-670800Y2260920D01*
X-685800Y2258750D01*
Y2304250D01*
G01X-644140Y2350920D02*
X-632470Y2358500D01*
X-625800Y2365000D01*
X-622470Y2373670D01*
X-625800Y2381250D01*
X-632470Y2386670D01*
X-642470Y2391000D01*
X-654130Y2392080D01*
X-664130Y2391000D01*
X-674140Y2386670D01*
X-682470Y2380170D01*
X-685800Y2372580D01*
X-682470Y2363920D01*
X-672470Y2356330D01*
X-657470Y2352000D01*
X-640800Y2350920D01*
X-619140Y2353080D01*
X-607470Y2356330D01*
X-595800Y2361750D01*
X-587470Y2369330D01*
X-585800Y2376920D01*
X-589130Y2384500D01*
X-597470Y2389920D01*
G01X-417230Y1905000D02*
Y2005000D01*
X-444320D01*
X-452980Y2000000D01*
X-458400Y1993330D01*
X-460570Y1980000D01*
X-458400Y1966670D01*
X-451900Y1958330D01*
X-444320Y1953330D01*
X-417230D01*
G01X-444320D02*
X-460570Y1905000D01*
G01X-508320Y1988330D02*
X-514820Y1998330D01*
X-522400Y2003330D01*
X-531070Y2005000D01*
X-541900Y2001670D01*
X-549480Y1993330D01*
X-551650Y1983330D01*
X-550570Y1973330D01*
X-546230Y1965000D01*
X-524570Y1948330D01*
X-514820Y1936670D01*
X-508320Y1920000D01*
X-506150Y1905000D01*
X-551650D01*
G01X-598320Y1988330D02*
X-604820Y1998330D01*
X-612400Y2003330D01*
X-621070Y2005000D01*
X-631900Y2001670D01*
X-639480Y1993330D01*
X-641650Y1983330D01*
X-640570Y1973330D01*
X-636230Y1965000D01*
X-614570Y1948330D01*
X-604820Y1936670D01*
X-598320Y1920000D01*
X-596150Y1905000D01*
X-641650D01*
G01X-508000Y2169830D02*
X-408000D01*
Y2196920D01*
X-413000Y2205580D01*
X-419670Y2211000D01*
X-433000Y2213170D01*
X-446330Y2211000D01*
X-454670Y2204500D01*
X-459670Y2196920D01*
Y2169830D01*
G01Y2196920D02*
X-508000Y2213170D01*
G01X-424670Y2260920D02*
X-414670Y2267420D01*
X-409670Y2275000D01*
X-408000Y2283670D01*
X-411330Y2294500D01*
X-419670Y2302080D01*
X-429670Y2304250D01*
X-439670Y2303170D01*
X-448000Y2298830D01*
X-464670Y2277170D01*
X-476330Y2267420D01*
X-493000Y2260920D01*
X-508000Y2258750D01*
Y2304250D01*
G01Y2369330D02*
X-486330Y2371500D01*
X-468000Y2374750D01*
X-451330Y2379080D01*
X-433000Y2384500D01*
X-408000Y2393170D01*
Y2349830D01*
G01X-341030Y-1625600D02*
Y-1525600D01*
X-368120D01*
X-376780Y-1530600D01*
X-382200Y-1537270D01*
X-384370Y-1550600D01*
X-382200Y-1563930D01*
X-375700Y-1572270D01*
X-368120Y-1577270D01*
X-341030D01*
G01X-368120D02*
X-384370Y-1625600D01*
G01X-434280Y-1613940D02*
X-441870Y-1622270D01*
X-450530Y-1625600D01*
X-459200Y-1622270D01*
X-466780Y-1612270D01*
X-472200Y-1597270D01*
X-474370Y-1582270D01*
Y-1563930D01*
X-472200Y-1548930D01*
X-466780Y-1535600D01*
X-460280Y-1528930D01*
X-452700Y-1525600D01*
X-444030Y-1528930D01*
X-437530Y-1535600D01*
X-433200Y-1545600D01*
X-431030Y-1558940D01*
X-433200Y-1570600D01*
X-438620Y-1582270D01*
X-445120Y-1588940D01*
X-452700Y-1590600D01*
X-461370Y-1587270D01*
X-467870Y-1578930D01*
X-474370Y-1563930D01*
G01X-264830Y1397000D02*
Y1497000D01*
X-291920D01*
X-300580Y1492000D01*
X-306000Y1485330D01*
X-308170Y1472000D01*
X-306000Y1458670D01*
X-299500Y1450330D01*
X-291920Y1445330D01*
X-264830D01*
G01X-291920D02*
X-308170Y1397000D01*
G01X-355920Y1480330D02*
X-362420Y1490330D01*
X-370000Y1495330D01*
X-378670Y1497000D01*
X-389500Y1493670D01*
X-397080Y1485330D01*
X-399250Y1475330D01*
X-398170Y1465330D01*
X-393830Y1457000D01*
X-372170Y1440330D01*
X-362420Y1428670D01*
X-355920Y1412000D01*
X-353750Y1397000D01*
X-399250D01*
G01X-442670Y1417000D02*
X-449170Y1405330D01*
X-457830Y1398670D01*
X-467580Y1397000D01*
X-476250Y1398670D01*
X-484920Y1407000D01*
X-490330Y1417000D01*
X-491420Y1427000D01*
X-489250Y1438660D01*
X-481670Y1447000D01*
X-474080Y1450330D01*
X-464330D01*
G01X-474080D02*
X-480580Y1455330D01*
X-486000Y1463660D01*
X-488170Y1473670D01*
X-486000Y1483670D01*
X-480580Y1492000D01*
X-470830Y1497000D01*
X-461080Y1495330D01*
X-451330Y1488670D01*
G01X648480Y-729470D02*
X641980Y-719470D01*
X634400Y-714470D01*
X625730Y-712800D01*
X614900Y-716130D01*
X607320Y-724470D01*
X605150Y-734470D01*
X606230Y-744470D01*
X610570Y-752800D01*
X632230Y-769470D01*
X641980Y-781130D01*
X648480Y-797800D01*
X650650Y-812800D01*
X605150D01*
G01X537900Y-712800D02*
X546570Y-716130D01*
X553070Y-724470D01*
X557400Y-734470D01*
X560650Y-747800D01*
X561730Y-762800D01*
X560650Y-777800D01*
X557400Y-791130D01*
X553070Y-801140D01*
X546570Y-809470D01*
X537900Y-812800D01*
X529230Y-809470D01*
X522730Y-801140D01*
X518400Y-791130D01*
X515150Y-777800D01*
X514070Y-762800D01*
X515150Y-747800D01*
X518400Y-734470D01*
X522730Y-724470D01*
X529230Y-716130D01*
X537900Y-712800D01*
G01X447900Y-812800D02*
Y-712800D01*
X460900Y-732800D01*
G01Y-812800D02*
X434900D01*
G01X376320Y-801140D02*
X368730Y-809470D01*
X360070Y-812800D01*
X351400Y-809470D01*
X343820Y-799470D01*
X338400Y-784470D01*
X336230Y-769470D01*
Y-751130D01*
X338400Y-736130D01*
X343820Y-722800D01*
X350320Y-716130D01*
X357900Y-712800D01*
X366570Y-716130D01*
X373070Y-722800D01*
X377400Y-732800D01*
X379570Y-746140D01*
X377400Y-757800D01*
X371980Y-769470D01*
X365480Y-776140D01*
X357900Y-777800D01*
X349230Y-774470D01*
X342730Y-766130D01*
X336230Y-751130D01*
G01X287400Y-816130D02*
X248400Y-712800D01*
G01X177900D02*
X186570Y-716130D01*
X193070Y-724470D01*
X197400Y-734470D01*
X200650Y-747800D01*
X201730Y-762800D01*
X200650Y-777800D01*
X197400Y-791130D01*
X193070Y-801140D01*
X186570Y-809470D01*
X177900Y-812800D01*
X169230Y-809470D01*
X162730Y-801140D01*
X158400Y-791130D01*
X155150Y-777800D01*
X154070Y-762800D01*
X155150Y-747800D01*
X158400Y-734470D01*
X162730Y-724470D01*
X169230Y-716130D01*
X177900Y-712800D01*
G01X74900Y-812800D02*
Y-712800D01*
X114980Y-784470D01*
X60820D01*
G01X17400Y-816130D02*
X-21600Y-712800D01*
G01X-92100Y-812800D02*
Y-712800D01*
X-79100Y-732800D01*
G01Y-812800D02*
X-105100D01*
G01X-161520Y-729470D02*
X-168020Y-719470D01*
X-175600Y-714470D01*
X-184270Y-712800D01*
X-195100Y-716130D01*
X-202680Y-724470D01*
X-204850Y-734470D01*
X-203770Y-744470D01*
X-199430Y-752800D01*
X-177770Y-769470D01*
X-168020Y-781130D01*
X-161520Y-797800D01*
X-159350Y-812800D01*
X-204850D01*
G01X65370Y-1625600D02*
Y-1525600D01*
X38280D01*
X29620Y-1530600D01*
X24200Y-1537270D01*
X22030Y-1550600D01*
X24200Y-1563930D01*
X30700Y-1572270D01*
X38280Y-1577270D01*
X65370D01*
G01X38280D02*
X22030Y-1625600D01*
G01X-46300D02*
Y-1525600D01*
X-33300Y-1545600D01*
G01Y-1625600D02*
X-59300D01*
G01X15470Y208730D02*
X20470Y202230D01*
X23800Y194650D01*
Y185980D01*
X18800Y176230D01*
X10470Y168650D01*
X470Y163230D01*
X-16200Y158900D01*
X-31200Y157820D01*
X-46200Y159980D01*
X-56200Y163230D01*
X-66200Y169730D01*
X-72870Y177320D01*
X-76200Y184900D01*
Y192480D01*
X-72870Y200070D01*
X-67870Y206570D01*
X-61200Y211980D01*
G01X7130Y254320D02*
X17130Y260820D01*
X22130Y268400D01*
X23800Y277070D01*
X20470Y287900D01*
X12130Y295480D01*
X2130Y297650D01*
X-7870Y296570D01*
X-16200Y292230D01*
X-32870Y270570D01*
X-44530Y260820D01*
X-61200Y254320D01*
X-76200Y252150D01*
Y297650D01*
G01X-64540Y346480D02*
X-72870Y354070D01*
X-76200Y362730D01*
X-72870Y371400D01*
X-62870Y378980D01*
X-47870Y384400D01*
X-32870Y386570D01*
X-14530D01*
X470Y384400D01*
X13800Y378980D01*
X20470Y372480D01*
X23800Y364900D01*
X20470Y356230D01*
X13800Y349730D01*
X3800Y345400D01*
X-9540Y343230D01*
X-21200Y345400D01*
X-32870Y350820D01*
X-39540Y357320D01*
X-41200Y364900D01*
X-37870Y373570D01*
X-29530Y380070D01*
X-14530Y386570D01*
G01X121470Y980670D02*
X127970Y985670D01*
X135550Y989000D01*
X144220D01*
X153970Y984000D01*
X161550Y975670D01*
X166970Y965670D01*
X171300Y949000D01*
X172380Y934000D01*
X170220Y919000D01*
X166970Y909000D01*
X160470Y899000D01*
X152880Y892330D01*
X145300Y889000D01*
X137720D01*
X130130Y892330D01*
X123630Y897330D01*
X118220Y904000D01*
G01X55300Y889000D02*
Y989000D01*
X68300Y969000D01*
G01Y889000D02*
X42300D01*
G01X-14120Y972330D02*
X-20620Y982330D01*
X-28200Y987330D01*
X-36870Y989000D01*
X-47700Y985670D01*
X-55280Y977330D01*
X-57450Y967330D01*
X-56370Y957330D01*
X-52030Y949000D01*
X-30370Y932330D01*
X-20620Y920670D01*
X-14120Y904000D01*
X-11950Y889000D01*
X-57450D01*
G01X219930Y1371600D02*
Y1471600D01*
X198270D01*
X189600Y1466600D01*
X183100Y1459930D01*
X177680Y1449930D01*
X173350Y1438260D01*
X172270Y1421600D01*
X173350Y1404930D01*
X177680Y1393270D01*
X183100Y1383260D01*
X189600Y1376600D01*
X198270Y1371600D01*
X219930D01*
G01X106100D02*
Y1471600D01*
X119100Y1451600D01*
G01Y1371600D02*
X93100D01*
G01X400870Y1818870D02*
X407370Y1823870D01*
X414950Y1827200D01*
X423620D01*
X433370Y1822200D01*
X440950Y1813870D01*
X446370Y1803870D01*
X450700Y1787200D01*
X451780Y1772200D01*
X449620Y1757200D01*
X446370Y1747200D01*
X439870Y1737200D01*
X432280Y1730530D01*
X424700Y1727200D01*
X417120D01*
X409530Y1730530D01*
X403030Y1735530D01*
X397620Y1742200D01*
G01X334700Y1727200D02*
Y1827200D01*
X347700Y1807200D01*
G01Y1727200D02*
X321700D01*
G01X244700D02*
Y1827200D01*
X257700Y1807200D01*
G01Y1727200D02*
X231700D01*
G01X446370Y-1625600D02*
Y-1525600D01*
X419280D01*
X410620Y-1530600D01*
X405200Y-1537270D01*
X403030Y-1550600D01*
X405200Y-1563930D01*
X411700Y-1572270D01*
X419280Y-1577270D01*
X446370D01*
G01X419280D02*
X403030Y-1625600D01*
G01X358530Y-1605600D02*
X352030Y-1617270D01*
X343370Y-1623930D01*
X333620Y-1625600D01*
X324950Y-1623930D01*
X316280Y-1615600D01*
X310870Y-1605600D01*
X309780Y-1595600D01*
X311950Y-1583940D01*
X319530Y-1575600D01*
X327120Y-1572270D01*
X336870D01*
G01X327120D02*
X320620Y-1567270D01*
X315200Y-1558940D01*
X313030Y-1548930D01*
X315200Y-1538930D01*
X320620Y-1530600D01*
X330370Y-1525600D01*
X340120Y-1527270D01*
X349870Y-1533930D01*
G01X878170Y-1651000D02*
Y-1551000D01*
X851080D01*
X842420Y-1556000D01*
X837000Y-1562670D01*
X834830Y-1576000D01*
X837000Y-1589330D01*
X843500Y-1597670D01*
X851080Y-1602670D01*
X878170D01*
G01X851080D02*
X834830Y-1651000D01*
G01X787080Y-1567670D02*
X780580Y-1557670D01*
X773000Y-1552670D01*
X764330Y-1551000D01*
X753500Y-1554330D01*
X745920Y-1562670D01*
X743750Y-1572670D01*
X744830Y-1582670D01*
X749170Y-1591000D01*
X770830Y-1607670D01*
X780580Y-1619330D01*
X787080Y-1636000D01*
X789250Y-1651000D01*
X743750D01*
G01X827370Y1116000D02*
Y1016000D01*
X784030D01*
G01X715700D02*
Y1116000D01*
X728700Y1096000D01*
G01Y1016000D02*
X702700D01*
G01X1007330Y1827200D02*
Y1755530D01*
X1003000Y1740530D01*
X994330Y1730530D01*
X983500Y1727200D01*
X972670Y1730530D01*
X964000Y1740530D01*
X959670Y1755530D01*
Y1827200D01*
G01X917330Y1747200D02*
X910830Y1735530D01*
X902170Y1728870D01*
X892420Y1727200D01*
X883750Y1728870D01*
X875080Y1737200D01*
X869670Y1747200D01*
X868580Y1757200D01*
X870750Y1768860D01*
X878330Y1777200D01*
X885920Y1780530D01*
X895670D01*
G01X885920D02*
X879420Y1785530D01*
X874000Y1793860D01*
X871830Y1803870D01*
X874000Y1813870D01*
X879420Y1822200D01*
X889170Y1827200D01*
X898920Y1825530D01*
X908670Y1818870D01*
G01X1747070Y66270D02*
X1753570Y71270D01*
X1761150Y74600D01*
X1769820D01*
X1779570Y69600D01*
X1787150Y61270D01*
X1792570Y51270D01*
X1796900Y34600D01*
X1797980Y19600D01*
X1795820Y4600D01*
X1792570Y-5400D01*
X1786070Y-15400D01*
X1778480Y-22070D01*
X1770900Y-25400D01*
X1763320D01*
X1755730Y-22070D01*
X1749230Y-17070D01*
X1743820Y-10400D01*
G01X1704730Y-5400D02*
X1698230Y-17070D01*
X1689570Y-23730D01*
X1679820Y-25400D01*
X1671150Y-23730D01*
X1662480Y-15400D01*
X1657070Y-5400D01*
X1655980Y4600D01*
X1658150Y16260D01*
X1665730Y24600D01*
X1673320Y27930D01*
X1683070D01*
G01X1673320D02*
X1666820Y32930D01*
X1661400Y41260D01*
X1659230Y51270D01*
X1661400Y61270D01*
X1666820Y69600D01*
X1676570Y74600D01*
X1686320Y72930D01*
X1696070Y66270D01*
G01X1614730Y-5400D02*
X1608230Y-17070D01*
X1599570Y-23730D01*
X1589820Y-25400D01*
X1581150Y-23730D01*
X1572480Y-15400D01*
X1567070Y-5400D01*
X1565980Y4600D01*
X1568150Y16260D01*
X1575730Y24600D01*
X1583320Y27930D01*
X1593070D01*
G01X1583320D02*
X1576820Y32930D01*
X1571400Y41260D01*
X1569230Y51270D01*
X1571400Y61270D01*
X1576820Y69600D01*
X1586570Y74600D01*
X1596320Y72930D01*
X1606070Y66270D01*
G01X1747070Y-111530D02*
X1753570Y-106530D01*
X1761150Y-103200D01*
X1769820D01*
X1779570Y-108200D01*
X1787150Y-116530D01*
X1792570Y-126530D01*
X1796900Y-143200D01*
X1797980Y-158200D01*
X1795820Y-173200D01*
X1792570Y-183200D01*
X1786070Y-193200D01*
X1778480Y-199870D01*
X1770900Y-203200D01*
X1763320D01*
X1755730Y-199870D01*
X1749230Y-194870D01*
X1743820Y-188200D01*
G01X1667900Y-203200D02*
Y-103200D01*
X1707980Y-174870D01*
X1653820D01*
G01X2351370Y1930400D02*
Y2030400D01*
X2324280D01*
X2315620Y2025400D01*
X2310200Y2018730D01*
X2308030Y2005400D01*
X2310200Y1992070D01*
X2316700Y1983730D01*
X2324280Y1978730D01*
X2351370D01*
G01X2324280D02*
X2308030Y1930400D01*
G01X2260280Y2013730D02*
X2253780Y2023730D01*
X2246200Y2028730D01*
X2237530Y2030400D01*
X2226700Y2027070D01*
X2219120Y2018730D01*
X2216950Y2008730D01*
X2218030Y1998730D01*
X2222370Y1990400D01*
X2244030Y1973730D01*
X2253780Y1962070D01*
X2260280Y1945400D01*
X2262450Y1930400D01*
X2216950D01*
G01X2136700D02*
Y2030400D01*
X2176780Y1958730D01*
X2122620D01*
G01X2276070Y1351730D02*
X2281070Y1345230D01*
X2284400Y1337650D01*
Y1328980D01*
X2279400Y1319230D01*
X2271070Y1311650D01*
X2261070Y1306230D01*
X2244400Y1301900D01*
X2229400Y1300820D01*
X2214400Y1302980D01*
X2204400Y1306230D01*
X2194400Y1312730D01*
X2187730Y1320320D01*
X2184400Y1327900D01*
Y1335480D01*
X2187730Y1343070D01*
X2192730Y1349570D01*
X2199400Y1354980D01*
G01X2196060Y1399480D02*
X2187730Y1407070D01*
X2184400Y1415730D01*
X2187730Y1424400D01*
X2197730Y1431980D01*
X2212730Y1437400D01*
X2227730Y1439570D01*
X2246070D01*
X2261070Y1437400D01*
X2274400Y1431980D01*
X2281070Y1425480D01*
X2284400Y1417900D01*
X2281070Y1409230D01*
X2274400Y1402730D01*
X2264400Y1398400D01*
X2251060Y1396230D01*
X2239400Y1398400D01*
X2227730Y1403820D01*
X2221060Y1410320D01*
X2219400Y1417900D01*
X2222730Y1426570D01*
X2231070Y1433070D01*
X2246070Y1439570D01*
G01X2386000Y1659670D02*
X2314330D01*
X2299330Y1664000D01*
X2289330Y1672670D01*
X2286000Y1683500D01*
X2289330Y1694330D01*
X2299330Y1703000D01*
X2314330Y1707330D01*
X2386000D01*
G01X2369330Y1752920D02*
X2379330Y1759420D01*
X2384330Y1767000D01*
X2386000Y1775670D01*
X2382670Y1786500D01*
X2374330Y1794080D01*
X2364330Y1796250D01*
X2354330Y1795170D01*
X2346000Y1790830D01*
X2329330Y1769170D01*
X2317670Y1759420D01*
X2301000Y1752920D01*
X2286000Y1750750D01*
Y1796250D01*
G01X2403070Y1300930D02*
X2408070Y1294430D01*
X2411400Y1286850D01*
Y1278180D01*
X2406400Y1268430D01*
X2398070Y1260850D01*
X2388070Y1255430D01*
X2371400Y1251100D01*
X2356400Y1250020D01*
X2341400Y1252180D01*
X2331400Y1255430D01*
X2321400Y1261930D01*
X2314730Y1269520D01*
X2311400Y1277100D01*
Y1284680D01*
X2314730Y1292270D01*
X2319730Y1298770D01*
X2326400Y1304180D01*
G01X2311400Y1367100D02*
X2411400D01*
X2391400Y1354100D01*
G01X2311400D02*
Y1380100D01*
G01X2411400Y1457100D02*
X2408070Y1448430D01*
X2399730Y1441930D01*
X2389730Y1437600D01*
X2376400Y1434350D01*
X2361400Y1433270D01*
X2346400Y1434350D01*
X2333070Y1437600D01*
X2323060Y1441930D01*
X2314730Y1448430D01*
X2311400Y1457100D01*
X2314730Y1465770D01*
X2323060Y1472270D01*
X2333070Y1476600D01*
X2346400Y1479850D01*
X2361400Y1480930D01*
X2376400Y1479850D01*
X2389730Y1476600D01*
X2399730Y1472270D01*
X2408070Y1465770D01*
X2411400Y1457100D01*
G01X2585270Y574270D02*
X2591770Y579270D01*
X2599350Y582600D01*
X2608020D01*
X2617770Y577600D01*
X2625350Y569270D01*
X2630770Y559270D01*
X2635100Y542600D01*
X2636180Y527600D01*
X2634020Y512600D01*
X2630770Y502600D01*
X2624270Y492600D01*
X2616680Y485930D01*
X2609100Y482600D01*
X2601520D01*
X2593930Y485930D01*
X2587430Y490930D01*
X2582020Y497600D01*
G01X2519100Y482600D02*
X2511520Y484270D01*
X2502850Y489270D01*
X2497430Y497600D01*
X2495270Y509270D01*
X2497430Y520930D01*
X2503930Y530930D01*
X2513680Y535930D01*
X2524520D01*
X2531020Y539270D01*
X2536430Y547600D01*
X2538600Y559270D01*
X2535350Y570930D01*
X2527770Y579270D01*
X2519100Y582600D01*
X2510430Y579270D01*
X2502850Y570930D01*
X2499600Y559270D01*
X2501770Y547600D01*
X2507180Y539270D01*
X2513680Y535930D01*
X2524520D01*
X2534270Y530930D01*
X2540770Y520930D01*
X2542930Y509270D01*
X2540770Y497600D01*
X2535350Y489270D01*
X2526680Y484270D01*
X2519100Y482600D01*
G01X2585270Y955270D02*
X2591770Y960270D01*
X2599350Y963600D01*
X2608020D01*
X2617770Y958600D01*
X2625350Y950270D01*
X2630770Y940270D01*
X2635100Y923600D01*
X2636180Y908600D01*
X2634020Y893600D01*
X2630770Y883600D01*
X2624270Y873600D01*
X2616680Y866930D01*
X2609100Y863600D01*
X2601520D01*
X2593930Y866930D01*
X2587430Y871930D01*
X2582020Y878600D01*
G01X2521270Y863600D02*
X2519100Y885270D01*
X2515850Y903600D01*
X2511520Y920270D01*
X2506100Y938600D01*
X2497430Y963600D01*
X2540770D01*
G01X2656170Y990600D02*
Y1090600D01*
X2629080D01*
X2620420Y1085600D01*
X2615000Y1078930D01*
X2612830Y1065600D01*
X2615000Y1052270D01*
X2621500Y1043930D01*
X2629080Y1038930D01*
X2656170D01*
G01X2629080D02*
X2612830Y990600D01*
G01X2565080Y1073930D02*
X2558580Y1083930D01*
X2551000Y1088930D01*
X2542330Y1090600D01*
X2531500Y1087270D01*
X2523920Y1078930D01*
X2521750Y1068930D01*
X2522830Y1058930D01*
X2527170Y1050600D01*
X2548830Y1033930D01*
X2558580Y1022270D01*
X2565080Y1005600D01*
X2567250Y990600D01*
X2521750D01*
G01X2454500D02*
Y1090600D01*
X2467500Y1070600D01*
G01Y990600D02*
X2441500D01*
G01X2656170Y1320800D02*
Y1420800D01*
X2629080D01*
X2620420Y1415800D01*
X2615000Y1409130D01*
X2612830Y1395800D01*
X2615000Y1382470D01*
X2621500Y1374130D01*
X2629080Y1369130D01*
X2656170D01*
G01X2629080D02*
X2612830Y1320800D01*
G01X2565080Y1404130D02*
X2558580Y1414130D01*
X2551000Y1419130D01*
X2542330Y1420800D01*
X2531500Y1417470D01*
X2523920Y1409130D01*
X2521750Y1399130D01*
X2522830Y1389130D01*
X2527170Y1380800D01*
X2548830Y1364130D01*
X2558580Y1352470D01*
X2565080Y1335800D01*
X2567250Y1320800D01*
X2521750D01*
G01X2454500Y1420800D02*
X2463170Y1417470D01*
X2469670Y1409130D01*
X2474000Y1399130D01*
X2477250Y1385800D01*
X2478330Y1370800D01*
X2477250Y1355800D01*
X2474000Y1342470D01*
X2469670Y1332460D01*
X2463170Y1324130D01*
X2454500Y1320800D01*
X2445830Y1324130D01*
X2439330Y1332460D01*
X2435000Y1342470D01*
X2431750Y1355800D01*
X2430670Y1370800D01*
X2431750Y1385800D01*
X2435000Y1399130D01*
X2439330Y1409130D01*
X2445830Y1417470D01*
X2454500Y1420800D01*
G01X2610670Y1564870D02*
X2617170Y1569870D01*
X2624750Y1573200D01*
X2633420D01*
X2643170Y1568200D01*
X2650750Y1559870D01*
X2656170Y1549870D01*
X2660500Y1533200D01*
X2661580Y1518200D01*
X2659420Y1503200D01*
X2656170Y1493200D01*
X2649670Y1483200D01*
X2642080Y1476530D01*
X2634500Y1473200D01*
X2626920D01*
X2619330Y1476530D01*
X2612830Y1481530D01*
X2607420Y1488200D01*
G01X2544500Y1473200D02*
Y1573200D01*
X2557500Y1553200D01*
G01Y1473200D02*
X2531500D01*
G01X2456670D02*
X2454500Y1494870D01*
X2451250Y1513200D01*
X2446920Y1529870D01*
X2441500Y1548200D01*
X2432830Y1573200D01*
X2476170D01*
G54D13*
G01X1977350Y-518810D02*
X1951350Y-543800D01*
X1922100Y-558800D01*
X1896100D01*
X1870100Y-543800D01*
X1850600Y-518810D01*
X1840850Y-483800D01*
X1847350Y-448810D01*
X1863600Y-418800D01*
X1892850Y-398800D01*
X1931850Y-388800D01*
X1954600Y-368800D01*
X1964350Y-333800D01*
X1957850Y-298800D01*
X1941600Y-273810D01*
X1918850Y-258800D01*
X1896100D01*
X1873350Y-268800D01*
X1853850Y-293800D01*
G01X1720350Y-558800D02*
X1639100Y-258800D01*
X1557850Y-558800D01*
G01X1587100Y-453800D02*
X1691100D01*
G01X1440600Y-558800D02*
Y-258800D01*
X1375600D01*
X1349600Y-273810D01*
X1330100Y-293800D01*
X1313850Y-323800D01*
X1300850Y-358810D01*
X1297600Y-408800D01*
X1300850Y-458800D01*
X1313850Y-493800D01*
X1330100Y-523810D01*
X1349600Y-543800D01*
X1375600Y-558800D01*
X1440600D01*
G01X1180350D02*
X1099100Y-258800D01*
X1017850Y-558800D01*
G01X1047100Y-453800D02*
X1151100D01*
G01X926600Y-658800D02*
X731600D01*
G01X507100Y-383800D02*
X529850Y-363810D01*
X549350Y-358810D01*
X575350Y-368800D01*
X594850Y-388800D01*
X607850Y-423800D01*
X611100Y-458800D01*
X607850Y-493800D01*
X594850Y-523810D01*
X575350Y-548800D01*
X549350Y-558800D01*
X526600Y-548800D01*
X507100Y-528810D01*
G01X289100Y-558800D02*
X308600Y-553800D01*
X328100Y-533810D01*
X341100Y-498800D01*
X347600Y-458800D01*
X341100Y-418800D01*
X328100Y-383800D01*
X308600Y-363810D01*
X289100Y-358810D01*
X269600Y-363810D01*
X250100Y-383800D01*
X237100Y-418800D01*
X233850Y-458800D01*
X237100Y-498800D01*
X250100Y-533810D01*
X269600Y-553800D01*
X289100Y-558800D01*
G01X74350D02*
Y-358810D01*
G01Y-408800D02*
X61350Y-383800D01*
X41850Y-363810D01*
X15850Y-358810D01*
X-6900Y-363810D01*
X-26400Y-383800D01*
X-36150Y-418800D01*
Y-558800D01*
G01X-250900Y-258800D02*
Y-558800D01*
G01X-205400Y-358810D02*
X-296400D01*
G01X-475400Y-558800D02*
Y-358810D01*
G01Y-398800D02*
X-491650Y-378800D01*
X-507900Y-363810D01*
X-530650Y-358810D01*
X-546900Y-363810D01*
X-566400Y-378800D01*
G01X-790900Y-558800D02*
X-771400Y-553800D01*
X-751900Y-533810D01*
X-738900Y-498800D01*
X-732400Y-458800D01*
X-738900Y-418800D01*
X-751900Y-383800D01*
X-771400Y-363810D01*
X-790900Y-358810D01*
X-810400Y-363810D01*
X-829900Y-383800D01*
X-842900Y-418800D01*
X-846150Y-458800D01*
X-842900Y-498800D01*
X-829900Y-533810D01*
X-810400Y-553800D01*
X-790900Y-558800D01*
G01X-1060900D02*
Y-258800D01*
G01X-1330900Y-558800D02*
Y-258800D01*
G01X-1552150Y-423800D02*
X-1656150D01*
X-1646400Y-388800D01*
X-1630150Y-368800D01*
X-1607400Y-358810D01*
X-1584650Y-363810D01*
X-1565150Y-378800D01*
X-1552150Y-413800D01*
X-1545650Y-443810D01*
Y-473800D01*
X-1552150Y-503800D01*
X-1568400Y-533810D01*
X-1587900Y-553800D01*
X-1610650Y-558800D01*
X-1633400Y-548800D01*
X-1656150Y-518810D01*
G01X-1825400Y-558800D02*
Y-358810D01*
G01Y-398800D02*
X-1841650Y-378800D01*
X-1857900Y-363810D01*
X-1880650Y-358810D01*
X-1896900Y-363810D01*
X-1916400Y-378800D01*
G54D14*
G01X-1254610Y1599410D02*
X-1234590Y1579400D01*
X-1254610Y1559410D01*
X-1234590Y1539390D01*
X-1254610Y1519400D01*
X-1234590Y1499390D01*
G01X-1254610Y1599410D02*
X-1234590Y1579400D01*
X-1254610Y1559410D01*
X-1234590Y1539390D01*
X-1254610Y1519400D01*
X-1234590Y1499390D01*
G01X-797410Y1599410D02*
X-777390Y1579400D01*
X-797410Y1559410D01*
X-777390Y1539390D01*
X-797410Y1519400D01*
X-777390Y1499390D01*
G01X-797410Y1599410D02*
X-777390Y1579400D01*
X-797410Y1559410D01*
X-777390Y1539390D01*
X-797410Y1519400D01*
X-777390Y1499390D01*
G01X-772010Y-1677190D02*
X-751990Y-1697200D01*
X-772010Y-1717190D01*
X-751990Y-1737210D01*
X-772010Y-1757200D01*
X-751990Y-1777210D01*
G01X-772010Y-1677190D02*
X-751990Y-1697200D01*
X-772010Y-1717190D01*
X-751990Y-1737210D01*
X-772010Y-1757200D01*
X-751990Y-1777210D01*
G01X-370990D02*
X-391010Y-1757200D01*
X-370990Y-1737210D01*
X-391010Y-1717190D01*
X-370990Y-1697200D01*
X-391010Y-1677190D01*
G01X-370990Y-1777210D02*
X-391010Y-1757200D01*
X-370990Y-1737210D01*
X-391010Y-1717190D01*
X-370990Y-1697200D01*
X-391010Y-1677190D01*
G01X-348130Y1547650D02*
X-368150Y1567660D01*
X-348130Y1587650D01*
X-368150Y1607670D01*
X-348130Y1627660D01*
X-368150Y1647670D01*
G01X-348130Y1547650D02*
X-368150Y1567660D01*
X-348130Y1587650D01*
X-368150Y1607670D01*
X-348130Y1627660D01*
X-368150Y1647670D01*
G01X-348130Y1753390D02*
X-368150Y1773400D01*
X-348130Y1793390D01*
X-368150Y1813410D01*
X-348130Y1833400D01*
X-368150Y1853410D01*
G01X-348130Y1753390D02*
X-368150Y1773400D01*
X-348130Y1793390D01*
X-368150Y1813410D01*
X-348130Y1833400D01*
X-368150Y1853410D01*
G01X15390Y-1677190D02*
X35410Y-1697200D01*
X15390Y-1717190D01*
X35410Y-1737210D01*
X15390Y-1757200D01*
X35410Y-1777210D01*
G01X15390Y-1677190D02*
X35410Y-1697200D01*
X15390Y-1717190D01*
X35410Y-1737210D01*
X15390Y-1757200D01*
X35410Y-1777210D01*
G01X416410D02*
X396390Y-1757200D01*
X416410Y-1737210D01*
X396390Y-1717190D01*
X416410Y-1697200D01*
X396390Y-1677190D01*
G01X416410Y-1777210D02*
X396390Y-1757200D01*
X416410Y-1737210D01*
X396390Y-1717190D01*
X416410Y-1697200D01*
X396390Y-1677190D01*
G01X802790D02*
X822810Y-1697200D01*
X802790Y-1717190D01*
X822810Y-1737210D01*
X802790Y-1757200D01*
X822810Y-1777210D01*
G01X802790Y-1677190D02*
X822810Y-1697200D01*
X802790Y-1717190D01*
X822810Y-1737210D01*
X802790Y-1757200D01*
X822810Y-1777210D01*
G01X1625450Y1479070D02*
X1605430Y1499080D01*
X1625450Y1519070D01*
X1605430Y1539090D01*
X1625450Y1559080D01*
X1605430Y1579090D01*
G01X1625450Y1479070D02*
X1605430Y1499080D01*
X1625450Y1519070D01*
X1605430Y1539090D01*
X1625450Y1559080D01*
X1605430Y1579090D01*
G01X1625450Y1694970D02*
X1605430Y1714980D01*
X1625450Y1734970D01*
X1605430Y1754990D01*
X1625450Y1774980D01*
X1605430Y1794990D01*
G01X1625450Y1694970D02*
X1605430Y1714980D01*
X1625450Y1734970D01*
X1605430Y1754990D01*
X1625450Y1774980D01*
X1605430Y1794990D01*
G01X1782290Y2265530D02*
X1762280Y2245510D01*
X1742290Y2265530D01*
X1722270Y2245510D01*
X1702280Y2265530D01*
X1682270Y2245510D01*
G01X1782290Y2265530D02*
X1762280Y2245510D01*
X1742290Y2265530D01*
X1722270Y2245510D01*
X1702280Y2265530D01*
X1682270Y2245510D01*
G01X1986130Y1915950D02*
X1966110Y1935960D01*
X1986130Y1955950D01*
X1966110Y1975970D01*
X1986130Y1995960D01*
X1966110Y2015970D01*
G01X1986130Y1915950D02*
X1966110Y1935960D01*
X1986130Y1955950D01*
X1966110Y1975970D01*
X1986130Y1995960D01*
X1966110Y2015970D01*
G01X1993110Y2268070D02*
X1973100Y2248050D01*
X1953110Y2268070D01*
X1933090Y2248050D01*
X1913100Y2268070D01*
X1893090Y2248050D01*
G01X1993110Y2268070D02*
X1973100Y2248050D01*
X1953110Y2268070D01*
X1933090Y2248050D01*
X1913100Y2268070D01*
X1893090Y2248050D01*
G01X2191230Y2268070D02*
X2171220Y2248050D01*
X2151230Y2268070D01*
X2131210Y2248050D01*
X2111220Y2268070D01*
X2091210Y2248050D01*
G01X2191230Y2268070D02*
X2171220Y2248050D01*
X2151230Y2268070D01*
X2131210Y2248050D01*
X2111220Y2268070D01*
X2091210Y2248050D01*
G54D15*
G01X-1384300Y1485900D02*
X-1104900D01*
Y1612900D01*
X-1384300D01*
Y1485900D01*
G01D02*
X-1104900D01*
Y1612900D01*
X-1384300D01*
Y1485900D01*
G01X-927100D02*
X-647700D01*
Y1612900D01*
X-927100D01*
Y1485900D01*
G01D02*
X-647700D01*
Y1612900D01*
X-927100D01*
Y1485900D01*
G01X-901700Y-1790700D02*
X-622300D01*
Y-1663700D01*
X-901700D01*
Y-1790700D01*
G01D02*
X-622300D01*
Y-1663700D01*
X-901700D01*
Y-1790700D01*
G01X-241300Y-1663700D02*
X-520700D01*
Y-1790700D01*
X-241300D01*
Y-1663700D01*
G01D02*
X-520700D01*
Y-1790700D01*
X-241300D01*
Y-1663700D01*
G01X-218440Y1661160D02*
X-497840D01*
Y1534160D01*
X-218440D01*
Y1661160D01*
G01D02*
X-497840D01*
Y1534160D01*
X-218440D01*
Y1661160D01*
G01Y1866900D02*
X-497840D01*
Y1739900D01*
X-218440D01*
Y1866900D01*
G01D02*
X-497840D01*
Y1739900D01*
X-218440D01*
Y1866900D01*
G01X-114300Y-1790700D02*
X165100D01*
Y-1663700D01*
X-114300D01*
Y-1790700D01*
G01D02*
X165100D01*
Y-1663700D01*
X-114300D01*
Y-1790700D01*
G01X38100Y254000D02*
Y139700D01*
X165100D01*
G01X38100Y254000D02*
Y139700D01*
X165100D01*
G01X129540Y269240D02*
X71120D01*
G01X129540D02*
X71120D01*
G01X129540Y287020D02*
X71120D01*
G01X165100Y304800D02*
Y419100D01*
X38100D01*
Y304800D01*
G01X165100D02*
Y419100D01*
X38100D01*
Y304800D01*
G01X129540Y287020D02*
X71120D01*
G01X546100Y-1663700D02*
X266700D01*
Y-1790700D01*
X546100D01*
Y-1663700D01*
G01D02*
X266700D01*
Y-1790700D01*
X546100D01*
Y-1663700D01*
G01X165100Y139700D02*
Y254000D01*
G01Y139700D02*
Y254000D01*
G01X355600Y1968500D02*
X241300D01*
Y1841500D01*
X355600D01*
G01Y1968500D02*
X241300D01*
Y1841500D01*
X355600D01*
G01X241300Y2179320D02*
Y2065020D01*
X368300D01*
Y2179320D01*
G01X241300D02*
Y2065020D01*
X368300D01*
Y2179320D01*
G01X241300Y2344420D02*
Y2230120D01*
G01Y2344420D02*
Y2230120D01*
G01X368300D02*
Y2344420D01*
X241300D01*
G01X368300Y2230120D02*
Y2344420D01*
X241300D01*
G01X406400Y1841500D02*
X520700D01*
Y1968500D01*
G01X406400Y1841500D02*
X520700D01*
Y1968500D01*
G01D02*
X406400D01*
G01X391160Y1932940D02*
Y1874520D01*
G01X373380Y1932940D02*
Y1874520D01*
G01Y1932940D02*
Y1874520D01*
G01X391160Y1932940D02*
Y1874520D01*
G01X520700Y1968500D02*
X406400D01*
G01X276860Y2214880D02*
X335280D01*
G01X276860Y2197100D02*
X335280D01*
G01X276860D02*
X335280D01*
G01X276860Y2214880D02*
X335280D01*
G01X408940Y2179320D02*
Y2065020D01*
X535940D01*
Y2179320D01*
G01X408940D02*
Y2065020D01*
X535940D01*
Y2179320D01*
G01X408940Y2344420D02*
Y2230120D01*
G01X444500Y2214880D02*
X502920D01*
G01X444500Y2197100D02*
X502920D01*
G01X535940Y2230120D02*
Y2344420D01*
X408940D01*
G01X535940Y2230120D02*
Y2344420D01*
X408940D01*
G01X444500Y2197100D02*
X502920D01*
G01X444500Y2214880D02*
X502920D01*
G01X408940Y2344420D02*
Y2230120D01*
G01X673100Y-1790700D02*
X952500D01*
Y-1663700D01*
X673100D01*
Y-1790700D01*
G01D02*
X952500D01*
Y-1663700D01*
X673100D01*
Y-1790700D01*
G01X1460500Y2230120D02*
Y2115820D01*
X1587500D01*
Y2230120D01*
G01X1460500D02*
Y2115820D01*
X1587500D01*
Y2230120D01*
G01X1460500Y2395220D02*
Y2280920D01*
G01X1587500D02*
Y2395220D01*
X1460500D01*
G01X1587500Y2280920D02*
Y2395220D01*
X1460500D01*
G01D02*
Y2280920D01*
G01X1475740Y1031240D02*
X1590040D01*
G01X1605280Y1066800D02*
Y1125220D01*
G01X1590040Y1158240D02*
X1475740D01*
Y1031240D01*
G01X1590040Y1158240D02*
X1475740D01*
Y1031240D01*
G01X1605280Y1066800D02*
Y1125220D01*
G01X1475740Y1031240D02*
X1590040D01*
G01X1475740Y1242060D02*
X1590040D01*
G01X1605280Y1277620D02*
Y1336040D01*
G01X1590040Y1369060D02*
X1475740D01*
Y1242060D01*
G01X1590040Y1369060D02*
X1475740D01*
Y1242060D01*
G01X1605280Y1277620D02*
Y1336040D01*
G01X1475740Y1242060D02*
X1590040D01*
G01X1755140Y1592580D02*
X1475740D01*
Y1465580D01*
X1755140D01*
Y1592580D01*
G01D02*
X1475740D01*
Y1465580D01*
X1755140D01*
Y1592580D01*
G01Y1808480D02*
X1475740D01*
Y1681480D01*
X1755140D01*
Y1808480D01*
G01D02*
X1475740D01*
Y1681480D01*
X1755140D01*
Y1808480D01*
G01X1607820Y2029460D02*
X1493520D01*
Y1902460D01*
X1607820D01*
G01Y2029460D02*
X1493520D01*
Y1902460D01*
X1607820D01*
G01X1496060Y2265680D02*
X1554480D01*
G01X1496060Y2247900D02*
X1554480D01*
G01X1496060D02*
X1554480D01*
G01X1496060Y2265680D02*
X1554480D01*
G01X1623060Y1066800D02*
Y1125220D01*
G01X1640840Y1031240D02*
X1755140D01*
Y1158240D01*
X1640840D01*
G01Y1031240D02*
X1755140D01*
Y1158240D01*
X1640840D01*
G01X1623060Y1066800D02*
Y1125220D01*
G01Y1277620D02*
Y1336040D01*
G01X1640840Y1242060D02*
X1755140D01*
Y1369060D01*
X1640840D01*
G01Y1242060D02*
X1755140D01*
Y1369060D01*
X1640840D01*
G01X1623060Y1277620D02*
Y1336040D01*
G01X1643380Y1993900D02*
Y1935480D01*
G01X1625600Y1993900D02*
Y1935480D01*
G01X1658620Y1902460D02*
X1772920D01*
Y2029460D01*
G01X1658620Y1902460D02*
X1772920D01*
Y2029460D01*
G01X1625600Y1993900D02*
Y1935480D01*
G01X1643380Y1993900D02*
Y1935480D01*
G01X1772920Y2029460D02*
X1658620D01*
G01X1772920D02*
X1658620D01*
G01X1668780Y2395220D02*
Y2115820D01*
X1795780D01*
Y2395220D01*
X1668780D01*
G01D02*
Y2115820D01*
X1795780D01*
Y2395220D01*
X1668780D01*
G01X1841500Y-215900D02*
X1955800D01*
G01Y-88900D02*
X1841500D01*
Y-215900D01*
G01X1955800Y-88900D02*
X1841500D01*
Y-215900D01*
G01D02*
X1955800D01*
G01X1841500Y-38100D02*
X1955800D01*
G01Y88900D02*
X1841500D01*
Y-38100D01*
G01X1955800Y88900D02*
X1841500D01*
Y-38100D01*
G01D02*
X1955800D01*
G01X1816100Y1346200D02*
Y1231900D01*
X1943100D01*
Y1346200D01*
G01X1816100D02*
Y1231900D01*
X1943100D01*
Y1346200D01*
G01X1816100Y1511300D02*
Y1397000D01*
G01X1851660Y1381760D02*
X1910080D01*
G01X1851660Y1363980D02*
X1910080D01*
G01X1851660D02*
X1910080D01*
G01X1851660Y1381760D02*
X1910080D01*
G01X1816100Y1511300D02*
Y1397000D01*
G01X1943100D02*
Y1511300D01*
X1816100D01*
G01X1943100Y1397000D02*
Y1511300D01*
X1816100D01*
G01X2115820Y2029460D02*
X1836420D01*
Y1902460D01*
X2115820D01*
Y2029460D01*
G01D02*
X1836420D01*
Y1902460D01*
X2115820D01*
Y2029460D01*
G01X1971040Y-180340D02*
Y-121920D01*
G01X1988820Y-180340D02*
Y-121920D01*
G01X2006600Y-215900D02*
X2120900D01*
Y-88900D01*
X2006600D01*
G01Y-215900D02*
X2120900D01*
Y-88900D01*
X2006600D01*
G01X1988820Y-180340D02*
Y-121920D01*
G01X1971040Y-180340D02*
Y-121920D01*
G01Y-2540D02*
Y55880D01*
G01X1988820Y-2540D02*
Y55880D01*
G01X2006600Y-38100D02*
X2120900D01*
Y88900D01*
X2006600D01*
G01Y-38100D02*
X2120900D01*
Y88900D01*
X2006600D01*
G01X1988820Y-2540D02*
Y55880D01*
G01X1971040Y-2540D02*
Y55880D01*
G01X1879600Y2397760D02*
Y2118360D01*
X2006600D01*
Y2397760D01*
X1879600D01*
G01D02*
Y2118360D01*
X2006600D01*
Y2397760D01*
X1879600D01*
G01X2019300Y1346200D02*
Y1231900D01*
X2146300D01*
Y1346200D01*
G01X2019300D02*
Y1231900D01*
X2146300D01*
Y1346200D01*
G01X2019300Y1511300D02*
Y1397000D01*
G01X2054860Y1381760D02*
X2113280D01*
G01X2054860Y1363980D02*
X2113280D01*
G01X2054860D02*
X2113280D01*
G01X2054860Y1381760D02*
X2113280D01*
G01X2019300Y1511300D02*
Y1397000D01*
G01X2146300D02*
Y1511300D01*
X2019300D01*
G01X2146300Y1397000D02*
Y1511300D01*
X2019300D01*
G01X2077720Y2397760D02*
Y2118360D01*
X2204720D01*
Y2397760D01*
X2077720D01*
G01D02*
Y2118360D01*
X2204720D01*
Y2397760D01*
X2077720D01*
G01X-2900000Y2500000D02*
X2900000D01*
G02X3000000Y2400000I0J-100000D01*
G01Y-2400000D01*
G02X2900000Y-2500000I-100000J0D01*
G01X-2900000D01*
G02X-3000000Y-2400000I0J100000D01*
G01Y2400000D01*
G02X-2900000Y2500000I100000J0D01*
M02*
